<?xml version="1.0" encoding="UTF-8"?>
<svg version="1.1" xmlns="http://www.w3.org/2000/svg" width="512" height="512">
<path d="M0 0 C3.0625 0.625 3.0625 0.625 5.10766602 3.27880859 C6.95305265 6.43765326 8.22431302 9.3349584 9.40234375 12.7890625 C9.81742188 13.97693359 10.2325 15.16480469 10.66015625 16.38867188 C10.87687988 17.01572021 11.09360352 17.64276855 11.31689453 18.28881836 C16.87312487 34.24064049 23.60103201 49.47265117 31.0625 64.625 C31.77808075 66.07876038 31.77808075 66.07876038 32.50811768 67.56188965 C36.23237788 75.11929054 39.97574704 82.66709205 43.73257446 90.20834351 C44.60888344 91.96764398 45.48438099 93.72734854 46.35986328 95.48706055 C50.21462935 103.22361466 54.11687637 110.93440493 58.0625 118.625 C58.61492371 119.70865845 59.16734741 120.79231689 59.73651123 121.90881348 C61.33444965 125.02555946 62.95742882 128.12776198 64.58984375 131.2265625 C65.06845352 132.16494965 65.54706329 133.10333679 66.04017639 134.07015991 C66.49605637 134.92179718 66.95193634 135.77343445 67.42163086 136.65087891 C67.81265488 137.39786041 68.20367889 138.14484192 68.60655212 138.91445923 C70.54835085 141.19580868 72.15106146 141.31125879 75.0625 141.625 C75.0625 142.285 75.0625 142.945 75.0625 143.625 C75.74928833 143.73172028 76.43607666 143.83844055 77.14367676 143.94839478 C86.2850958 145.37081514 95.42436151 146.80667555 104.5625 148.25 C105.31516899 148.36881279 106.06783798 148.48762558 106.84331512 148.61003876 C126.61259064 151.73338895 146.35660595 154.97968905 166.0703125 158.4375 C166.97694893 158.59652172 167.88358536 158.75554344 168.81769562 158.919384 C177.73930404 160.48600699 186.65871799 162.06473319 195.57567024 163.65764236 C198.90363263 164.25153745 202.23216183 164.84221745 205.56075668 165.43255615 C207.83504351 165.83749316 210.10833739 166.24768547 212.38162231 166.65820312 C219.92524305 168.00541468 227.41124049 169.12041947 235.0625 169.625 C236.0756337 173.28413715 236.41327318 174.97422345 234.578125 178.37890625 C233.83046875 179.30574219 233.0828125 180.23257813 232.3125 181.1875 C231.49265625 182.21875 230.6728125 183.25 229.828125 184.3125 C226.47055638 188.36490554 223.07628049 192.39110143 219.60644531 196.34790039 C217.4955746 198.779049 216.09261563 200.5346531 215.0625 203.625 C213.40667592 204.97177473 211.73828849 206.3031496 210.0625 207.625 C204.66541466 213.65975467 198.70715792 220.33568417 195.0625 227.625 C194.0625 228.625 193.0625 229.625 192.0625 230.625 C191.7325 231.285 191.4025 231.945 191.0625 232.625 C189.89855213 233.77618062 188.73379149 234.92655108 187.56494141 236.07275391 C184.59236852 239.14386512 181.947882 242.501114 179.25 245.8125 C178.62907471 246.56990479 178.00814941 247.32730957 177.3684082 248.10766602 C174.12845447 252.06648052 170.92074526 256.04792737 167.75 260.0625 C164.39390012 264.28630947 160.8328144 268.29068118 157.1953125 272.2734375 C155.37881319 274.27624444 153.62195881 276.31200844 151.875 278.375 C147.80815404 283.07789296 143.32722315 287.38269633 138.8605957 291.70214844 C138.27109131 292.2799707 137.68158691 292.85779297 137.07421875 293.453125 C136.54272217 293.9677832 136.01122559 294.48244141 135.46362305 295.01269531 C133.95699045 296.60761655 133.95699045 296.60761655 133.00317383 298.78027344 C132.0625 300.625 132.0625 300.625 130 301.3125 C129.360625 301.415625 128.72125 301.51875 128.0625 301.625 C126.70192616 302.75944393 126.70192616 302.75944393 126.9375 305.76171875 C127.60824529 347.14813004 140.94890798 390.53361421 153.38427734 429.69726562 C157.96907106 444.20747718 157.96907106 444.20747718 156.125 449.125 C155.774375 449.62 155.42375 450.115 155.0625 450.625 C154.49402344 450.49222656 153.92554688 450.35945313 153.33984375 450.22265625 C148.59098903 449.1365242 143.89469676 448.24187618 139.0625 447.625 C139.0625 446.965 139.0625 446.305 139.0625 445.625 C136.7525 445.295 134.4425 444.965 132.0625 444.625 C132.0625 443.965 132.0625 443.305 132.0625 442.625 C131.134375 442.521875 130.20625 442.41875 129.25 442.3125 C125.81777158 441.57221544 125.39680311 440.95930311 123.0625 438.625 C120.43679296 438.37430087 120.43679296 438.37430087 118.0625 438.625 C118.0625 437.965 118.0625 437.305 118.0625 436.625 C115.7525 436.295 113.4425 435.965 111.0625 435.625 C111.0625 434.965 111.0625 434.305 111.0625 433.625 C104.39606259 430.16085941 104.39606259 430.16085941 97.0625 429.625 C97.0625 428.965 97.0625 428.305 97.0625 427.625 C94.71359726 426.46717535 92.35929918 425.32378829 90 424.1875 C89.01483398 423.69926758 89.01483398 423.69926758 88.00976562 423.20117188 C83.65871208 421.12209703 79.88469559 420.24508258 75.0625 419.625 C74.4025 418.965 73.7425 418.305 73.0625 417.625 C69.32758653 414.55703537 65.36323079 411.89341859 60.484375 411.32421875 C55.66658515 410.33976169 51.5814442 408.22307648 47.1875 406.0625 C45.86878906 405.42538086 45.86878906 405.42538086 44.5234375 404.77539062 C42.36638644 403.73203441 40.21299712 402.68178116 38.0625 401.625 C38.0625 400.965 38.0625 400.305 38.0625 399.625 C37.2375 399.5425 36.4125 399.46 35.5625 399.375 C31.29496079 398.46052731 27.87013106 396.70276822 24.0625 394.625 C24.0625 393.965 24.0625 393.305 24.0625 392.625 C22.0825 392.295 20.1025 391.965 18.0625 391.625 C18.0625 390.965 18.0625 390.305 18.0625 389.625 C15.2237239 388.07408304 12.36458954 386.56512569 9.5 385.0625 C8.30020508 384.40604492 8.30020508 384.40604492 7.07617188 383.73632812 C1.85533998 381.03001935 -1.20106512 380.09271739 -6.9375 381.625 C-6.9375 382.285 -6.9375 382.945 -6.9375 383.625 C-7.948125 383.728125 -8.95875 383.83125 -10 383.9375 C-14.14968208 384.66204767 -17.15106263 385.84769266 -20.9375 387.625 C-20.9375 388.285 -20.9375 388.945 -20.9375 389.625 C-22.3125 390.08333333 -23.6875 390.54166667 -25.0625 391 C-26.30193359 391.41572266 -26.30193359 391.41572266 -27.56640625 391.83984375 C-29.37013081 392.43712322 -31.18317855 393.00633017 -33 393.5625 C-36.81302525 394.94167935 -40.34837383 396.7484518 -43.9375 398.625 C-43.9375 399.285 -43.9375 399.945 -43.9375 400.625 C-45.30820781 401.27989373 -46.68433444 401.92344963 -48.0625 402.5625 C-48.82820312 402.92214844 -49.59390625 403.28179687 -50.3828125 403.65234375 C-52.9375 404.625 -52.9375 404.625 -55.71875 405 C-60.00839369 405.83294052 -63.46337259 407.67245048 -67.3125 409.6875 C-68.04855469 410.06455078 -68.78460938 410.44160156 -69.54296875 410.83007812 C-71.34489646 411.75444364 -73.14173099 412.68872614 -74.9375 413.625 C-74.9375 414.285 -74.9375 414.945 -74.9375 415.625 C-86.65625 421.484375 -86.65625 421.484375 -88.80078125 422.54882812 C-90.22332617 423.26530185 -91.63760504 423.99843265 -93.04296875 424.74804688 C-97.10222969 426.88592431 -100.38828652 427.86679775 -104.9375 428.625 C-107.81241391 429.82085554 -110.55520927 431.24403587 -113.3125 432.6875 C-114.04855469 433.06455078 -114.78460938 433.44160156 -115.54296875 433.83007812 C-117.34489646 434.75444364 -119.14173099 435.68872614 -120.9375 436.625 C-120.9375 437.285 -120.9375 437.945 -120.9375 438.625 C-127.45787618 442.51214734 -127.45787618 442.51214734 -130.0625 443.125 C-132.17058663 443.54147129 -132.17058663 443.54147129 -134.1875 445.5625 C-137.65103916 448.16015437 -140.74998395 448.8229556 -144.9375 449.625 C-145.9275 449.83125 -146.9175 450.0375 -147.9375 450.25 C-148.5975 450.37375 -149.2575 450.4975 -149.9375 450.625 C-151.21956331 446.77881006 -150.56385305 443.64557746 -149.98461914 439.7277832 C-149.81369389 438.51448995 -149.81369389 438.51448995 -149.63931561 437.27668571 C-149.25705466 434.57539597 -148.86484987 431.87564535 -148.47265625 429.17578125 C-148.20074844 427.26858511 -147.92945911 425.36130071 -147.65875244 423.45393372 C-146.93099499 418.33847688 -146.19474 413.22427604 -145.45688248 408.11026764 C-144.69763095 402.83773304 -143.94620755 397.56408371 -143.1940918 392.29052734 C-142.00009991 383.92534266 -140.80180461 375.56078695 -139.59960938 367.19677734 C-138.17937158 357.31574613 -136.76666604 347.43366387 -135.359375 337.55078125 C-133.6724494 325.70903245 -131.97928456 313.86819329 -130.28179932 302.0279541 C-129.49842478 296.5605803 -128.71785216 291.0928059 -127.9375 285.625 C-128.57816406 285.16996094 -129.21882813 284.71492188 -129.87890625 284.24609375 C-131.9375 282.625 -131.9375 282.625 -132.875 280.6875 C-134.34548348 277.83303207 -136.37856919 276.55841439 -138.9375 274.625 C-140.17639989 273.63708414 -141.40520649 272.63641212 -142.625 271.625 C-143.49705078 270.9134375 -143.49705078 270.9134375 -144.38671875 270.1875 C-145.9375 268.625 -145.9375 268.625 -146.87109375 266.73046875 C-148.26870387 263.97108466 -150.13465426 262.12619879 -152.3125 259.9375 C-153.08335937 259.14988281 -153.85421875 258.36226563 -154.6484375 257.55078125 C-156.92479821 255.63568598 -158.11050924 255.19286714 -160.9375 254.625 C-161.94489746 252.96279419 -162.94272955 251.29479326 -163.9375 249.625 C-168.25909592 244.25904325 -168.25909592 244.25904325 -174.06640625 241.140625 C-174.68386719 240.97046875 -175.30132812 240.8003125 -175.9375 240.625 C-176.19885742 240.06490234 -176.46021484 239.50480469 -176.72949219 238.92773438 C-178.34635933 235.84562223 -180.6689037 233.66602251 -183.13671875 231.265625 C-183.64999222 230.7575531 -184.16326569 230.2494812 -184.6920929 229.72601318 C-186.33169699 228.10416351 -187.97781153 226.4891434 -189.625 224.875 C-202.23528325 212.48054985 -202.23528325 212.48054985 -207.41430664 206.39990234 C-209.9489522 203.44640447 -212.64238437 200.6430026 -215.3125 197.8125 C-220.79621532 191.95507495 -225.98811301 185.94564572 -230.9375 179.625 C-231.80955078 178.58472656 -231.80955078 178.58472656 -232.69921875 177.5234375 C-233.9375 175.625 -233.9375 175.625 -233.625 172.375 C-233.398125 171.4675 -233.17125 170.56 -232.9375 169.625 C-230.41849976 168.78533325 -228.08256165 168.21124865 -225.48632812 167.70507812 C-224.1474353 167.44319702 -224.1474353 167.44319702 -222.78149414 167.17602539 C-221.84297607 166.99418701 -220.90445801 166.81234863 -219.9375 166.625 C-218.58096313 166.35707642 -218.58096313 166.35707642 -217.19702148 166.08374023 C-197.53748704 162.22389734 -177.78243563 159.27864789 -157.95027924 156.48040771 C-155.40795961 156.1208218 -152.86606664 155.75835112 -150.32427979 155.39501953 C-128.44917513 152.26986793 -106.57567296 149.26944478 -84.58007812 147.10742188 C-83.78582428 147.02488159 -82.99157043 146.94234131 -82.17324829 146.8572998 C-80.11768851 146.64446575 -78.06060508 146.44648299 -76.00341797 146.25 C-72.80518914 145.59802789 -71.95011074 145.0603169 -69.9375 142.625 C-69.2775 142.625 -68.6175 142.625 -67.9375 142.625 C-67.63199219 141.61566406 -67.32648438 140.60632813 -67.01171875 139.56640625 C-60.89799 120.01586031 -52.00005856 101.63877029 -43.04760742 83.25805664 C-39.10037788 75.12679836 -35.3250349 66.93225862 -31.61669922 58.69003296 C-25.82043787 45.80854266 -19.84550873 33.02525377 -13.6875 20.3125 C-13.31911011 19.54848877 -12.95072021 18.78447754 -12.57116699 17.99731445 C-11.52630913 15.83302464 -10.47527716 13.6718605 -9.421875 11.51171875 C-9.11314453 10.87159348 -8.80441406 10.2314682 -8.48632812 9.57194519 C-4.22737067 0.89944057 -4.22737067 0.89944057 0 0 Z " fill="#110F06" transform="translate(254.9375,30.375)"/>
<path d="M0 0 C-0.45737549 0.44166504 -0.91475098 0.88333008 -1.38598633 1.33837891 C-10.55388381 10.2336893 -19.09868231 19.17140467 -26.76464844 29.38867188 C-28.77986707 32.01721791 -30.92429636 34.53372666 -33.0625 37.0625 C-36.85165005 41.57254181 -40.47382768 46.18092734 -44.04370117 50.86572266 C-47.41920839 55.27909574 -50.87597126 59.62148971 -54.375 63.9375 C-54.85557861 64.53272461 -55.33615723 65.12794922 -55.83129883 65.74121094 C-57.53949252 67.83993602 -59.26932918 69.91976582 -61 72 C-61.79172607 72.9688916 -62.58345215 73.9377832 -63.39916992 74.93603516 C-73.1866268 86.7525895 -84.21575179 97.32618058 -95.16674805 108.05029297 C-105.20033744 117.89182026 -114.67725441 127.66386231 -123 139 C-124.30259718 140.69792045 -125.6082398 142.39351222 -126.91796875 144.0859375 C-128.00880436 145.51486836 -129.09869035 146.9445248 -130.1875 148.375 C-130.75791016 149.12265625 -131.32832031 149.8703125 -131.91601562 150.640625 C-133.27824252 152.42640144 -134.63958378 154.21284407 -136 156 C-139.15078009 154.65008634 -140.78663118 153.33725021 -142.7421875 150.53515625 C-143.49435547 149.47361328 -143.49435547 149.47361328 -144.26171875 148.390625 C-144.79410156 147.62234375 -145.32648438 146.8540625 -145.875 146.0625 C-147.0380603 144.41725981 -148.20215681 142.77275175 -149.3671875 141.12890625 C-149.9662793 140.2795752 -150.56537109 139.43024414 -151.18261719 138.55517578 C-154.06867846 134.49747598 -157.03425575 130.49963162 -160 126.5 C-164.02920457 121.05787061 -168.01667781 115.59082522 -171.94604492 110.07617188 C-180.75697405 97.73741114 -189.84793328 85.74840441 -200.765625 75.1875 C-204.03261783 71.98904548 -207.27578644 68.68039447 -210 65 C-210 64.34 -210 63.68 -210 63 C-199.84310109 57.52592564 -189.65180392 53.58091233 -178.6875 50.0625 C-177.0956658 49.54309817 -175.5041163 49.02282304 -173.9128418 48.50170898 C-169.99639722 47.22214655 -166.07593283 45.95549897 -162.15368652 44.69384766 C-160.16033563 44.05165492 -158.16821623 43.40584653 -156.17675781 42.7578125 C-145.94045432 39.42706578 -135.68648038 36.1537776 -125.375 33.0625 C-124.38947144 32.76291382 -124.38947144 32.76291382 -123.3840332 32.45727539 C-120.45972861 31.59736638 -117.69709431 30.96559502 -114.6640625 30.62109375 C-111.56325877 30.09547777 -109.52922427 29.45396242 -106.70239258 28.22998047 C-99.99742439 25.49562468 -93.06591972 23.62195002 -86.09765625 21.69921875 C-84.6519368 21.29613993 -83.20633695 20.89263196 -81.760849 20.48872375 C-78.73352298 19.64405627 -75.70520177 18.80309484 -72.67602539 17.96508789 C-68.88080662 16.91507569 -65.08753962 15.85822401 -61.29493141 14.79882622 C-45.56554146 10.40670756 -29.8216273 6.10023742 -13.99147034 2.08366394 C-12.96102097 1.82120377 -11.93057159 1.55874359 -10.86889648 1.28833008 C-9.97138168 1.06196365 -9.07386688 0.83559723 -8.14915466 0.60237122 C-2.89806451 -0.86941935 -2.89806451 -0.86941935 0 0 Z " fill="#FDFA89" transform="translate(472,218)"/>
<path d="M0 0 C0.33 0 0.66 0 1 0 C0.59089701 5.67002394 -1.03651744 9.20423257 -4.4375 13.625 C-4.88416016 14.22763672 -5.33082031 14.83027344 -5.79101562 15.45117188 C-7.17834407 17.3132663 -8.58514497 19.15875708 -10 21 C-10.42555176 21.55526367 -10.85110352 22.11052734 -11.28955078 22.68261719 C-12.93482302 24.82514733 -14.58480633 26.96397065 -16.23901367 29.09960938 C-29.16744974 44.74781249 -29.16744974 44.74781249 -37 63 C-32.76201146 61.48780863 -30.89984081 58.39643756 -28.5 54.8125 C-24.87369261 49.56147605 -21.0908044 44.51163422 -17.0625 39.5625 C-8.96499592 29.55847182 -0.85711182 19.51225427 5 8 C8.98173147 9.57960709 11.54283701 12.33939517 14.375 15.4375 C14.89392822 16.00388184 15.41285645 16.57026367 15.94750977 17.15380859 C26.78154032 29.25532571 35.75246155 42.96887328 44.85546875 56.3828125 C57.96665203 75.68460369 71.92685707 94.39312605 86 113 C86.42200684 113.55848633 86.84401367 114.11697266 87.27880859 114.69238281 C94.30560962 123.97054306 101.63328216 132.9910066 109 142 C115.38242066 149.81524705 121.75386731 157.6375987 128 165.5625 C128.6489624 166.38355225 128.6489624 166.38355225 129.31103516 167.22119141 C132.3275703 171.06630273 135.1808404 175.00786864 138 179 C136 180 136 180 134.1746521 179.43499756 C133.43429718 179.11065735 132.69394226 178.78631714 131.93115234 178.45214844 C131.08695236 178.08675964 130.24275238 177.72137085 129.37297058 177.34490967 C128.45324966 176.93718323 127.53352875 176.52945679 126.5859375 176.109375 C125.63241898 175.69375305 124.67890045 175.2781311 123.69648743 174.84991455 C120.58576214 173.49125372 117.48028467 172.12104492 114.375 170.75 C112.24602515 169.81600601 110.11687466 168.88241229 107.98754883 167.94921875 C86.4994352 158.5158814 65.22773538 148.70391703 44.09716797 138.49414062 C40.11186472 136.57154439 36.12062112 134.66148123 32.12939453 132.7512207 C17.04781038 125.52907091 1.99769831 118.24180633 -13.0296936 110.90760803 C-16.94656819 108.99679802 -20.8698223 107.10047831 -24.80078125 105.21875 C-38.37591666 98.65909573 -51.17339435 90.90182249 -64 83 C-62.83662848 79.86871973 -61.64964223 77.24862846 -59.6015625 74.609375 C-59.128396 73.9911084 -58.65522949 73.3728418 -58.16772461 72.73583984 C-57.65862549 72.0805127 -57.14952637 71.42518555 -56.625 70.75 C-52.26231565 65.04459525 -48.0397671 59.27024421 -43.9375 53.375 C-36.62762363 42.93181139 -28.77004642 33.00023322 -20.5625 23.25 C-20.06621094 22.65292236 -19.56992188 22.05584473 -19.05859375 21.44067383 C-16.54673246 18.49772978 -14.44922014 16.66775479 -11 15 C-9.92806468 13.11159946 -9.92806468 13.11159946 -9 11 C-7.8717631 9.61365229 -6.70260397 8.25985478 -5.5 6.9375 C-3.44184439 4.66567993 -1.70861829 2.56292743 0 0 Z " fill="#FDFA8A" transform="translate(256,285)"/>
<path d="M0 0 C2.475 0.495 2.475 0.495 5 1 C5.2522443 8.4727374 4.24109142 15.39322584 3 22.75 C1.10150891 34.60742828 0.53761319 46.01647519 1 58 C2.32 58 3.64 58 5 58 C5.03867188 56.71996094 5.03867188 56.71996094 5.078125 55.4140625 C5.53522497 45.33708589 6.8786885 35.52718903 8.54003906 25.57861328 C9.77299413 18.06450115 10.52865286 10.59969744 11 3 C11.59425781 3.17885742 12.18851563 3.35771484 12.80078125 3.54199219 C27.87803194 8.0733743 42.97601389 12.50105469 58.1875 16.5625 C91.82077687 25.54925543 91.82077687 25.54925543 103 30 C101.04798421 38.4587351 94.78004592 44.3213609 88.75 50.1875 C82.49089388 56.29339623 77.22849521 63.00610482 72 70 C71.45972168 70.72251953 70.91944336 71.44503906 70.36279297 72.18945312 C66.20589626 77.76679099 62.09429406 83.3765939 58 89 C57.43990234 89.76924805 56.87980469 90.53849609 56.30273438 91.33105469 C48.43606047 102.15119782 40.69357038 113.05634049 33 124 C19.2668963 143.53454685 5.44510182 163.04235582 -9.05859375 182.015625 C-17.20269121 192.68738614 -24.65315795 203.76673749 -32 215 C-33.28968015 211.13095954 -32.56901203 208.01584541 -31.92578125 204.08984375 C-31.80217224 203.29984985 -31.67856323 202.50985596 -31.5512085 201.69592285 C-31.14488239 199.10869581 -30.72865089 196.52316325 -30.3125 193.9375 C-30.02783922 192.13496139 -29.74390845 190.33230734 -29.46069336 188.52954102 C-28.8983763 184.9553506 -28.33267455 181.38172585 -27.76367188 177.80859375 C-26.84286949 172.02133665 -25.9491885 166.23007127 -25.0625 160.4375 C-24.91119629 159.4563623 -24.75989258 158.47522461 -24.60400391 157.46435547 C-23.53767004 150.54334596 -22.48899695 143.61976405 -21.4453125 136.6953125 C-18.51304148 117.26107656 -15.53576774 97.8360523 -12.375 78.4375 C-12.2290036 77.54123901 -12.0830072 76.64497803 -11.93258667 75.72155762 C-10.11243263 64.57145225 -8.2131456 53.43824728 -6.25 42.3125 C-4.19927867 30.68818264 -2.61767923 19.04071625 -1.30957031 7.31054688 C-0.97941075 4.84632754 -0.51169542 2.43243844 0 0 Z " fill="#FDFA89" transform="translate(148,247)"/>
<path d="M0 0 C2.12504714 2.12504714 2.48225653 3.07064522 3.3046875 5.875 C7.9104474 20.91397065 14.1793187 34.84777666 21 49 C21.58904729 50.22631324 22.17791147 51.45271446 22.76660156 52.67919922 C25.45805579 58.28325552 28.15918231 63.88249806 30.8747406 69.47491455 C33.51049252 74.90344191 36.11355704 80.34476593 38.66845703 85.81176758 C42.65699182 94.34255022 46.91347731 102.69659047 51.34765625 111.00390625 C53.19971182 114.47521518 55.01539098 117.96277353 56.80859375 121.46484375 C66.37698313 140.11702523 76.71639689 158.29302642 88.18164062 175.85058594 C88.64119141 176.56118164 89.10074219 177.27177734 89.57421875 178.00390625 C89.97213623 178.61049072 90.37005371 179.2170752 90.7800293 179.84204102 C92.45107809 182.79789458 93.69890031 185.86374432 95 189 C93.70980957 189.41958984 93.70980957 189.41958984 92.39355469 189.84765625 C71.3197825 196.72663096 50.42339794 204.01115278 29.61425781 211.65429688 C28.25432961 212.15351906 28.25432961 212.15351906 26.8669281 212.66282654 C25.18020471 213.28273075 23.4940093 213.90407453 21.80848694 214.52723694 C16.57168212 216.45546529 11.30395911 218.26509599 6 220 C2.005248 211.74417921 2.82268832 201.65090755 2.625 192.6875 C2.38396465 182.72886406 1.95960345 172.80144102 1.26953125 162.86328125 C-2.44362295 108.64751013 -1.4457759 54.29349916 0 0 Z " fill="#FCFA89" transform="translate(258,52)"/>
<path d="M0 0 C2.11405703 30.33463017 3.57820274 60.5933111 4 91 C-5.44605787 88.9501977 -5.44605787 88.9501977 -9.62890625 87.703125 C-10.42312988 87.46996582 -11.21735352 87.23680664 -12.03564453 86.99658203 C-13.28643799 86.62702393 -13.28643799 86.62702393 -14.5625 86.25 C-21.18032462 84.32260432 -27.80934798 82.51446064 -34.50695801 80.88482666 C-43.77785818 78.62562774 -52.95943532 76.19462607 -62.09765625 73.4453125 C-64.48263648 72.73318963 -66.86773348 72.02145775 -69.25292969 71.31005859 C-70.50916138 70.9348407 -71.76539307 70.5596228 -73.05969238 70.17303467 C-79.25172117 68.32691218 -85.45209826 66.50909458 -91.6514492 64.68774986 C-151.22525357 47.1789596 -151.22525357 47.1789596 -176.88217163 38.90075684 C-192.70906593 33.78108511 -192.70906593 33.78108511 -208.98828125 30.4921875 C-209.65214844 30.32976562 -210.31601563 30.16734375 -211 30 C-211.33 29.34 -211.66 28.68 -212 28 C-210.939021 27.86424561 -209.87804199 27.72849121 -208.78491211 27.58862305 C-199.32773276 26.37831303 -189.87081941 25.16595179 -180.41421509 23.95115662 C-174.85789355 23.23763177 -169.30111512 22.52786263 -163.7434082 21.82519531 C-162.7555835 21.69725586 -161.76775879 21.56931641 -160.75 21.4375 C-159.60050117 21.2891571 -159.60050117 21.2891571 -158.42778015 21.13781738 C-153.76416568 20.52649664 -149.11170588 19.87358629 -144.46557617 19.140625 C-130.88422628 17.00829373 -117.2945868 15.2900191 -103.62890625 13.81640625 C-102.77809101 13.72439375 -101.92727577 13.63238125 -101.05067825 13.53758049 C-93.11373827 12.68072413 -85.17546109 11.83664608 -77.23608398 11.00268555 C-56.95332883 8.86759504 -36.89629879 6.4780413 -16.86740112 2.56027222 C-13.88987095 1.97848147 -10.91046964 1.40956921 -7.92797852 0.85375977 C-7.05150162 0.6892482 -6.17502472 0.52473663 -5.27198792 0.35523987 C-3 0 -3 0 0 0 Z " fill="#FCF989" transform="translate(249,176)"/>
<path d="M0 0 C4.36727819 1.53266744 8.02849461 3.85807208 11.875 6.375 C20.44498196 11.86484221 29.40296876 16.50827713 38.45703125 21.140625 C44.02814076 23.99128371 49.52057214 26.97750905 55 30 C51.95684424 33.29261369 48.41134807 34.8216886 44.375 36.625 C38.43531611 39.34477658 32.61925082 42.20166506 26.875 45.3125 C20.42446365 48.79036296 13.87910454 52.00199579 7.25 55.125 C-4.55140116 60.69221115 -16.11631348 66.68161914 -27.68359375 72.71484375 C-28.77784668 73.28315918 -29.87209961 73.85147461 -30.99951172 74.43701172 C-32.85487082 75.40348926 -34.70632242 76.37756144 -36.55126953 77.36376953 C-38.33764305 78.30174618 -40.16454575 79.16212279 -42 80 C-42.66 79.67 -43.32 79.34 -44 79 C-37.35985165 70.63274235 -30.29082883 62.79543342 -23 55 C-6.03849989 39.18557426 -6.03849989 39.18557426 3 20 C-0.18935615 20.57318449 -1.7409728 21.38697761 -3.91796875 23.7734375 C-4.44527588 24.34521729 -4.97258301 24.91699707 -5.51586914 25.50610352 C-6.06750732 26.12283936 -6.61914551 26.7395752 -7.1875 27.375 C-7.76556396 28.00913818 -8.34362793 28.64327637 -8.93920898 29.29663086 C-13.01836227 33.80678046 -16.88224306 38.46449962 -20.68359375 43.2109375 C-23.39318108 46.47340858 -26.23641192 49.58387061 -29.125 52.6875 C-29.64384766 53.24590576 -30.16269531 53.80431152 -30.69726562 54.37963867 C-32.77440313 56.61269447 -34.85403428 58.84341859 -36.93359375 61.07421875 C-43.44847121 68.27651734 -49.77984684 76.3666907 -54.60546875 84.80859375 C-56.81066573 88.2739033 -59.32267342 89.26162743 -63 91 C-63.66 90.67 -64.32 90.34 -65 90 C-57.56521813 78.36528126 -49.34557607 67.42995719 -40.92041016 56.49804688 C-26.76911827 38.09021334 -12.88130899 19.32196348 0 0 Z " fill="#EAC964" transform="translate(187,373)"/>
<path d="M0 0 C3.24699946 0.52654045 5.39362969 1.30583116 7.58496094 3.81445312 C9.26589252 6.24818167 10.83396018 8.72534228 12.375 11.25 C12.94299316 12.14936279 13.51098633 13.04872559 14.09619141 13.9753418 C17.35019686 19.16925292 20.41766627 24.44570811 23.375 29.8125 C26.15774552 34.78504316 29.07037684 39.87790533 34 43 C35.32 43 36.64 43 38 43 C37.45028314 39.15868586 36.46561577 36.88665803 34.125 33.8125 C30.04505129 28.21207351 26.48276247 22.35037108 22.90869141 16.42114258 C20.36621169 12.209732 17.76620811 8.06833418 15 4 C22.39029204 4.71607799 29.46851177 6.42746677 36.6875 8.125 C67.0399068 15.14245248 98.05924184 21.47847031 129.10644531 24.31762695 C133.78781622 24.78781622 133.78781622 24.78781622 136 27 C135.18660156 27.235979 134.37320313 27.47195801 133.53515625 27.71508789 C130.39833844 28.62521494 127.26156402 29.53549122 124.12481689 30.44586182 C122.70584627 30.85765799 121.28686022 31.26940097 119.86785889 31.68109131 C112.73537832 33.75047756 105.60317394 35.8206257 98.4765625 37.91015625 C87.40092518 41.15704426 76.31173946 44.34524813 65.18920898 47.42822266 C60.07899017 48.84649324 54.98057663 50.29247964 49.8984375 51.80859375 C48.93510498 52.093396 47.97177246 52.37819824 46.97924805 52.67163086 C45.1657354 53.20973741 43.35452567 53.75568978 41.54614258 54.31079102 C40.74072021 54.54854248 39.93529785 54.78629395 39.10546875 55.03125 C38.40574951 55.24330078 37.70603027 55.45535156 36.98510742 55.67382812 C34.63557382 56.05987866 33.2120951 55.87246595 31 55 C29.65450541 52.87778808 28.57391397 50.88001871 27.5 48.625 C24.38345435 42.43541282 20.94084097 36.5744196 17.1875 30.75 C12.89697383 24.05960659 8.74551912 17.30866646 4.75 10.4375 C4.03299927 9.21401855 4.03299927 9.21401855 3.30151367 7.96582031 C2.86685791 7.21268555 2.43220215 6.45955078 1.984375 5.68359375 C1.59991211 5.01900146 1.21544922 4.35440918 0.81933594 3.66967773 C0 2 0 2 0 0 Z " fill="#EBC963" transform="translate(330,182)"/>
<path d="M0 0 C7.73803441 2.30396562 15.40751452 4.7798177 23.05859375 7.35546875 C24.41916397 7.81322441 24.41916397 7.81322441 25.80722046 8.28022766 C29.67916976 9.58383772 33.55072661 10.88861156 37.42224121 12.19351196 C47.43197553 15.56110708 57.43511387 18.91008853 67.58203125 21.84375 C68.29407211 22.05042801 69.00611298 22.25710602 69.73973083 22.470047 C72.99650449 23.41016215 76.25669301 24.32455819 79.52905273 25.2097168 C80.64868408 25.52593994 81.76831543 25.84216309 82.921875 26.16796875 C83.88706055 26.42860107 84.85224609 26.6892334 85.84667969 26.95776367 C88 28 88 28 88.83422852 29.96777344 C89.04003532 32.49080117 88.68451853 34.57740735 88.1875 37.0625 C87.38736123 41.44747101 86.79782956 45.7797074 86.39526367 50.21337891 C85.14686869 63.95305855 82.55128682 77.45193802 80 91 C76.88830932 88.60626436 74.18901245 86.24596371 71.6875 83.22265625 C68.05584388 78.98016812 64.10778762 75.21311379 60 71.4375 C53.5796081 65.47374447 47.30498178 59.39748243 41.17382812 53.13647461 C38.30422603 50.22464837 35.39352375 47.44186022 32.28515625 44.78515625 C26.19322752 39.52591083 20.63915215 33.69539427 14.99072266 27.97021484 C9.69570002 22.60980032 4.41355302 17.30315775 -1.36132812 12.45043945 C-3.92271749 10.18327404 -5.9583057 7.74352672 -8 5 C-8 4.34 -8 3.68 -8 3 C-3.67613624 4.31958155 0.09419289 6.00165203 4.04296875 8.1953125 C5.18975098 8.8251001 6.3365332 9.4548877 7.51806641 10.10375977 C8.11693665 10.43417267 8.71580688 10.76458557 9.33282471 11.10501099 C20.9371529 17.48687595 32.57966432 23.35573153 45 28 C45.77553223 28.2976123 46.55106445 28.59522461 47.35009766 28.90185547 C56.66432894 32.43825447 64.87601613 35.07195123 75 34 C74.67 33.01 74.34 32.02 74 31 C71.22003784 29.75024827 71.22003784 29.75024827 67.73828125 28.7578125 C66.39194285 28.33396272 65.04575836 27.90962383 63.69970703 27.48486328 C62.98478088 27.2638092 62.26985474 27.04275513 61.53326416 26.81500244 C48.9341736 22.9004025 36.69177149 18.46096088 24.625 13.125 C24.01282623 12.85463928 23.40065247 12.58427856 22.76992798 12.3057251 C18.83536623 10.56165091 14.91577003 8.78578303 11 7 C9.91428711 6.50725586 8.82857422 6.01451172 7.70996094 5.50683594 C5.13905934 4.33988443 2.56907845 3.17095823 0 2 C0 1.34 0 0.68 0 0 Z " fill="#EBC963" transform="translate(50,215)"/>
<path d="M0 0 C0.33 0 0.66 0 1 0 C1.13248746 12.603974 0.77647658 25.14541895 0.2020874 37.73562622 C-0.92065961 62.48392574 -1.55638102 87.23127356 -2 112 C-13.77949535 114.82308541 -25.53462644 117.39238243 -37.5 119.3125 C-38.55501709 119.48362305 -39.61003418 119.65474609 -40.69702148 119.83105469 C-45.50461851 120.57839384 -50.11733907 121.22573946 -55 121 C-54.67 120.01 -54.34 119.02 -54 118 C-51.54606901 117.1249307 -49.28111988 116.49169575 -46.75 115.9375 C-46.0079834 115.76758545 -45.2659668 115.5976709 -44.50146484 115.42260742 C-35.76410627 113.54671401 -26.89906187 112.85882347 -17.99853516 112.23364258 C-15.79466707 112.04485084 -15.79466707 112.04485084 -13 111 C-13.33 110.01 -13.66 109.02 -14 108 C-23.91765691 107.69007322 -33.24615947 107.8189437 -42.95898438 110.02075195 C-46.18854004 110.74304224 -47.78434852 111.07188383 -51 110 C-45.8940985 97.26626733 -40.54735594 84.76532141 -34.3059082 72.54492188 C-30.66431171 65.39401313 -27.23327658 58.16299851 -23.875 50.875 C-18.5417694 39.30326719 -13.13472977 27.76850556 -7.6875 16.25 C-7.3029364 15.43658142 -6.9183728 14.62316284 -6.52215576 13.78509521 C-4.34934422 9.18947584 -2.17526896 4.59445667 0 0 Z " fill="#EAC963" transform="translate(250,54)"/>
<path d="M0 0 C0.66 0 1.32 0 2 0 C2.06469482 0.56058105 2.12938965 1.12116211 2.19604492 1.69873047 C3.55634028 13.26532772 5.19106596 24.7457156 7.375 36.1875 C7.65186646 37.65968994 7.65186646 37.65968994 7.93432617 39.16162109 C11.50263148 57.37136482 16.70497561 75.08589041 22.22314453 92.7824707 C23.03903759 95.40613143 23.84434888 98.03285814 24.6484375 100.66015625 C24.90039886 101.45688248 25.15236023 102.2536087 25.41195679 103.07447815 C27.11326144 108.66021569 27.11326144 108.66021569 26 112 C23.8501895 109.37245383 21.7004097 106.74488262 19.55078125 104.1171875 C17.98641627 102.20512049 16.42126358 100.29370965 14.85546875 98.3828125 C9.35720984 91.67065227 3.88247606 84.93959955 -1.5859375 78.203125 C-3.87976832 75.37771636 -6.17687315 72.55501702 -8.4765625 69.734375 C-14.06103017 62.88117987 -19.63285122 56.02608568 -25 49 C-23.68934285 46.17957406 -22.23223515 43.88196115 -20.2421875 41.49609375 C-19.70231201 40.84278076 -19.16243652 40.18946777 -18.60620117 39.51635742 C-18.03490479 38.83033447 -17.4636084 38.14431152 -16.875 37.4375 C-7.03410273 27.16031095 -7.03410273 27.16031095 -2 15 C-6.22780311 15.4697559 -8.29656631 18.001777 -11 21 C-11.5878125 21.63035156 -12.175625 22.26070313 -12.78125 22.91015625 C-18.30992906 28.95440657 -23.1709867 35.39364153 -28 42 C-31 41 -31 41 -31.91796875 39.171875 C-32 37 -32 37 -30.55078125 35.203125 C-29.81214844 34.55859375 -29.07351563 33.9140625 -28.3125 33.25 C-23.98806463 29.18113002 -20.49551501 24.85689186 -17 20.0625 C-11.77045439 12.91714728 -6.27191557 6.27191557 0 0 Z " fill="#EAC963" transform="translate(371,342)"/>
<path d="M0 0 C0.66 0 1.32 0 2 0 C2.3383344 2.37438249 2.67079002 4.74934959 3 7.125 C3.09539062 7.79015625 3.19078125 8.4553125 3.2890625 9.140625 C3.83611453 13.12628981 4.10022182 16.97859938 4 21 C3.34 20.67 2.68 20.34 2 20 C2 18.02 2 16.04 2 14 C1.34 14 0.68 14 0 14 C0 14.94875 0 15.8975 0 16.875 C-0.77133237 22.56649796 -4.99189618 27.12445992 -9 31 C-9.99 31 -10.98 31 -12 31 C-11.36191406 30.26394531 -10.72382813 29.52789062 -10.06640625 28.76953125 C-9.24011719 27.79371094 -8.41382813 26.81789063 -7.5625 25.8125 C-6.73878906 24.84957031 -5.91507812 23.88664062 -5.06640625 22.89453125 C-3.05561826 20.07790762 -2.3412259 18.39364669 -2 15 C-6.22780311 15.4697559 -8.29656631 18.001777 -11 21 C-11.5878125 21.63035156 -12.175625 22.26070313 -12.78125 22.91015625 C-18.30992906 28.95440657 -23.1709867 35.39364153 -28 42 C-31 41 -31 41 -31.91796875 39.171875 C-32 37 -32 37 -30.55078125 35.203125 C-29.81214844 34.55859375 -29.07351563 33.9140625 -28.3125 33.25 C-23.98806463 29.18113002 -20.49551501 24.85689186 -17 20.0625 C-11.77045439 12.91714728 -6.27191557 6.27191557 0 0 Z " fill="#E1C46C" transform="translate(371,342)"/>
<path d="M0 0 C1.65 0.33 3.3 0.66 5 1 C5.2482414 8.55134309 4.27211016 15.61838361 3.0625 23.0625 C1.50145675 33.05657035 0.3097481 42.88672457 0 53 C-0.66 51.68 -1.32 50.36 -2 49 C-3.65 49.66 -5.3 50.32 -7 51 C-6.92483154 50.45923828 -6.84966309 49.91847656 -6.7722168 49.36132812 C-5.08710879 37.20511432 -3.47638038 25.04320741 -2.00268555 12.859375 C-1.88578369 11.90417969 -1.76888184 10.94898438 -1.6484375 9.96484375 C-1.54708496 9.1255835 -1.44573242 8.28632324 -1.34130859 7.42163086 C-0.98917108 4.92316731 -0.51806457 2.46892728 0 0 Z " fill="#E5E386" transform="translate(148,247)"/>
<path d="M0 0 C11.0708766 3.30517584 22.02737043 6.94706287 32.98706055 10.60058594 C36.08600009 11.63282777 39.18651702 12.66023501 42.28710938 13.6875 C44.26572255 14.34606115 46.24424167 15.00490499 48.22265625 15.6640625 C49.14554947 15.9692984 50.06844269 16.2745343 51.01930237 16.58901978 C51.87797409 16.87626923 52.73664581 17.16351868 53.62133789 17.45947266 C54.37266495 17.70944 55.123992 17.95940735 55.89808655 18.21694946 C58.02092406 19.00779509 59.99431399 19.95004499 62 21 C61.01 21.495 61.01 21.495 60 22 C59.34 21.67 58.68 21.34 58 21 C57.67 22.32 57.34 23.64 57 25 C49.66187751 23.17482108 42.80136384 20.87141734 35.87890625 17.83984375 C34.97172348 17.44930313 34.06454071 17.05876251 33.12986755 16.65638733 C30.27107337 15.42357808 27.41683008 14.18060438 24.5625 12.9375 C22.62332562 12.10026555 20.68387456 11.26367161 18.74414062 10.42773438 C15.20613842 8.8994806 11.66854281 7.37034956 8.13500977 5.83178711 C7.43094498 5.52550888 6.72688019 5.21923065 6.0014801 4.90367126 C3.97237344 3.98752657 1.98436451 3.00896855 0 2 C0 1.34 0 0.68 0 0 Z " fill="#E1C369" transform="translate(50,215)"/>
<path d="M0 0 C3.24699946 0.52654045 5.39362969 1.30583116 7.58496094 3.81445312 C9.2659189 6.24821987 10.83436414 8.72503696 12.375 11.25 C13.22155151 12.5946936 13.22155151 12.5946936 14.08520508 13.96655273 C18.06234246 20.33054111 21.86873265 26.78716094 25.51171875 33.34765625 C27.01288611 36.102299 27.01288611 36.102299 29 39 C27.02 38.34 25.04 37.68 23 37 C22.67 37.66 22.34 38.32 22 39 C18.54292128 33.25759711 15.09328904 27.51077865 11.65136719 21.75927734 C10.58520281 19.97781817 9.51820538 18.19685717 8.45019531 16.41650391 C7.04548806 14.07206706 5.64681634 11.72414449 4.25 9.375 C3.82025879 8.65965088 3.39051758 7.94430176 2.94775391 7.20727539 C0 2.22921184 0 2.22921184 0 0 Z " fill="#E5C669" transform="translate(330,182)"/>
<path d="M0 0 C0 0.33 0 0.66 0 1 C-4.29892959 1.84687599 -8.59987458 2.6824417 -12.90283203 3.50854492 C-14.35978245 3.78978661 -15.81618839 4.07386705 -17.27197266 4.36108398 C-26.86645628 6.25150847 -36.21131542 7.55963501 -46 8 C-45.67 7.01 -45.34 6.02 -45 5 C-42.54589507 4.12486867 -40.28147752 3.49095991 -37.75 2.9375 C-37.00508301 2.76903564 -36.26016602 2.60057129 -35.49267578 2.42700195 C-29.32811805 1.11616229 -23.14362001 0.30849002 -16.875 -0.3125 C-15.9994043 -0.40088135 -15.12380859 -0.4892627 -14.22167969 -0.58032227 C-9.26873661 -1.00987544 -4.88846285 -0.92072674 0 0 Z " fill="#D9BE6D" transform="translate(241,167)"/>
<path d="M0 0 C1.0828125 0.2165625 1.0828125 0.2165625 2.1875 0.4375 C2.1875 4.4835528 0.19873533 6.70289088 -2.0625 9.875 C-2.45824219 10.44798828 -2.85398438 11.02097656 -3.26171875 11.61132812 C-6.79159902 16.63996084 -10.26355314 20.66302657 -15.8125 23.4375 C-16.4725 23.1075 -17.1325 22.7775 -17.8125 22.4375 C-16.25148481 20.08233728 -14.68873051 17.72835896 -13.125 15.375 C-12.68994141 14.71822266 -12.25488281 14.06144531 -11.80664062 13.38476562 C-10.48419273 11.39619583 -9.14938658 9.41638463 -7.8125 7.4375 C-7.36737061 6.76340088 -6.92224121 6.08930176 -6.46362305 5.39477539 C-3.13244048 0.48726852 -3.13244048 0.48726852 0 0 Z " fill="#E2C56D" transform="translate(139.8125,440.5625)"/>
<path d="M0 0 C1.65 0.33 3.3 0.66 5 1 C5.15856416 7.54737841 4.61020183 13.61632812 3.5 20.0625 C3.28537109 21.3609082 3.28537109 21.3609082 3.06640625 22.68554688 C2.71736324 24.7914397 2.35960461 26.89588495 2 29 C1.67 29 1.34 29 1 29 C0.67 26.36 0.34 23.72 0 21 C-0.33 21 -0.66 21 -1 21 C-1.02710123 18.4374282 -1.04688771 15.87514635 -1.0625 13.3125 C-1.07087891 12.59126953 -1.07925781 11.87003906 -1.08789062 11.12695312 C-1.10543632 7.28444618 -0.93524221 3.73360474 0 0 Z " fill="#FAF894" transform="translate(148,247)"/>
<path d="M0 0 C9.12025714 2.71183725 18.06612199 5.73183473 27 9 C26.67 9.99 26.34 10.98 26 12 C19.98882908 11.45080664 15.02233648 8.95138069 9.625 6.4375 C8.69816406 6.01275391 7.77132812 5.58800781 6.81640625 5.15039062 C4.54124315 4.10663024 2.26932965 3.05636818 0 2 C0 1.34 0 0.68 0 0 Z " fill="#DFC572" transform="translate(50,215)"/>
<path d="M0 0 C0.33 0 0.66 0 1 0 C0.56775888 5.40301401 -0.50570386 8.80684463 -4 13 C-5.9375 13.625 -5.9375 13.625 -8 14 C-9.7074998 15.28062485 -11.38263741 16.6072711 -13 18 C-13.66 17.67 -14.32 17.34 -15 17 C-14.38125 16.7525 -13.7625 16.505 -13.125 16.25 C-10.55873309 14.74043123 -10.30866808 13.6220436 -9 11 C-7.8717631 9.61365229 -6.70260397 8.25985478 -5.5 6.9375 C-3.44184439 4.66567993 -1.70861829 2.56292743 0 0 Z " fill="#DAD887" transform="translate(256,285)"/>
<path d="M0 0 C-1.75 4.875 -1.75 4.875 -4 6 C-4.33 5.01 -4.66 4.02 -5 3 C-2.25 0 -2.25 0 0 0 Z M-7 4 C-6.34 4.33 -5.68 4.66 -5 5 C-8.96 8.96 -12.92 12.92 -17 17 C-17.99 16.67 -18.98 16.34 -20 16 C-18.59106853 14.36828877 -17.17254042 12.74486055 -15.75 11.125 C-14.56664062 9.76761719 -14.56664062 9.76761719 -13.359375 8.3828125 C-11.24924272 6.25171864 -9.81943823 4.95186163 -7 4 Z " fill="#EFEE90" transform="translate(251,297)"/>
<path d="M0 0 C3.42610318 0.48944331 5.47358982 1.37340691 7.71386719 4.04003906 C9.51289241 6.69301251 11.20979672 9.38607967 12.875 12.125 C13.46796875 13.06988281 14.0609375 14.01476562 14.671875 14.98828125 C16.12997331 17.316535 17.57170883 19.65338556 19 22 C18.34 22.33 17.68 22.66 17 23 C13.04 16.73 9.08 10.46 5 4 C5 5.65 5 7.3 5 9 C2.67527795 6.14693203 1.2491742 3.45925163 0 0 Z " fill="#DBC172" transform="translate(330,182)"/>
<path d="M0 0 C1.505625 0.45375 3.01125 0.9075 4.5625 1.375 C8.69946295 2.61667736 12.8435574 3.82535318 17 5 C17 5.33 17 5.66 17 6 C11.76119922 5.44854729 7.02649303 4.57077907 2 3 C1.95101562 3.99902344 1.90203125 4.99804688 1.8515625 6.02734375 C1.77679688 7.31769531 1.70203125 8.60804688 1.625 9.9375 C1.52058594 11.86916016 1.52058594 11.86916016 1.4140625 13.83984375 C1.27742187 14.88269531 1.14078125 15.92554688 1 17 C0.34 17.33 -0.32 17.66 -1 18 C-0.505 9.09 -0.505 9.09 0 0 Z " fill="#E9E795" transform="translate(159,250)"/>
<path d="M0 0 C0.33 0.99 0.66 1.98 1 3 C-4.38027025 4.19088986 -9.45291384 5.2919519 -15 5 C-14.67 4.01 -14.34 3.02 -14 2 C-9.18912503 0.45073518 -5.08003559 -0.25400178 0 0 Z " fill="#E0C26B" transform="translate(210,170)"/>
<path d="M0 0 C1.65 0.33 3.3 0.66 5 1 C5 3.97 5 6.94 5 10 C4.01 10 3.02 10 2 10 C1.67 9.34 1.34 8.68 1 8 C0.34 8 -0.32 8 -1 8 C-0.67 5.36 -0.34 2.72 0 0 Z " fill="#E7E68E" transform="translate(148,247)"/>
<path d="M0 0 C0.66 0.66 1.32 1.32 2 2 C5.08347826 2.16681109 5.08347826 2.16681109 8 2 C4.44008172 4.96659857 0.34777457 7.381348 -4 9 C-4.66 8.67 -5.32 8.34 -6 8 C-4.02 5.36 -2.04 2.72 0 0 Z " fill="#D9C072" transform="translate(149,444)"/>
<path d="M0 0 C0.66 0 1.32 0 2 0 C0.38462556 3.89917968 -2.27924873 6.71293772 -5.125 9.75 C-5.59292969 10.25660156 -6.06085938 10.76320313 -6.54296875 11.28515625 C-7.69126541 12.52719141 -8.84508672 13.76411494 -10 15 C-10.66 14.67 -11.32 14.34 -12 14 C-11.55269531 13.49210937 -11.10539063 12.98421875 -10.64453125 12.4609375 C-10.03996094 11.77257812 -9.43539062 11.08421875 -8.8125 10.375 C-8.17570313 9.65054687 -7.53890625 8.92609375 -6.8828125 8.1796875 C-5.2734359 6.31655028 -3.7239969 4.42292127 -2.1875 2.5 C-1.465625 1.675 -0.74375 0.85 0 0 Z " fill="#1E1505" transform="translate(154,429)"/>
<path d="M0 0 C5.75 1.75 5.75 1.75 8 4 C7.625 6.625 7.625 6.625 7 9 C1.21538462 4.56923077 1.21538462 4.56923077 0.125 1.6875 C0.08375 1.130625 0.0425 0.57375 0 0 Z " fill="#D2B86A" transform="translate(42,218)"/>
<path d="M0 0 C2.00293347 3.00440021 2.49271626 4.70993945 3.125 8.1875 C3.29257812 9.08855469 3.46015625 9.98960937 3.6328125 10.91796875 C3.75398438 11.60503906 3.87515625 12.29210937 4 13 C0.71211176 9.88983545 -1.83735988 6.98381075 -4 3 C-3.01 3.33 -2.02 3.66 -1 4 C-0.67 2.68 -0.34 1.36 0 0 Z " fill="#D0B86F" transform="translate(394,441)"/>
<path d="M0 0 C0 3.72047814 -0.97203752 4.62861872 -3.25 7.5 C-4.15492188 8.66015625 -4.15492188 8.66015625 -5.078125 9.84375 C-6.9118076 11.90105243 -8.73855842 13.43900493 -11 15 C-11.66 14.67 -12.32 14.34 -13 14 C-8.71 9.38 -4.42 4.76 0 0 Z " fill="#23230B" transform="translate(462,227)"/>
<path d="M0 0 C2.0625 0.4375 2.0625 0.4375 4 1 C4 1.99 4 2.98 4 4 C3.34 4 2.68 4 2 4 C2 3.34 2 2.68 2 2 C1.34 2 0.68 2 0 2 C-0.226875 2.61875 -0.45375 3.2375 -0.6875 3.875 C-2.37929835 6.61410209 -3.99244161 7.05024472 -7 8 C-6.02133662 6.85373678 -5.04205413 5.70800212 -4.0625 4.5625 C-3.51722656 3.92441406 -2.97195312 3.28632813 -2.41015625 2.62890625 C-1.63204305 1.73008851 -0.84063472 0.84063472 0 0 Z " fill="#30250B" transform="translate(187,392)"/>
<path d="M0 0 C0.33 0 0.66 0 1 0 C0.50769231 6.4 0.50769231 6.4 -2.0625 9.4375 C-3.0215625 10.2109375 -3.0215625 10.2109375 -4 11 C-4.6484375 9.234375 -4.6484375 9.234375 -5 7 C-4.0390625 5.078125 -4.0390625 5.078125 -2.625 3.25 C-2.16351563 2.63640625 -1.70203125 2.0228125 -1.2265625 1.390625 C-0.82179687 0.93171875 -0.41703125 0.4728125 0 0 Z " fill="#E3E398" transform="translate(256,285)"/>
<path d="M0 0 C0.99 0.33 1.98 0.66 3 1 C-0.3 3.97 -3.6 6.94 -7 10 C-7.66 9.67 -8.32 9.34 -9 9 C-6.03 6.03 -3.06 3.06 0 0 Z " fill="#26240D" transform="translate(387,315)"/>
<path d="M0 0 C3.375 -0.125 3.375 -0.125 7 0 C7.66 0.66 8.32 1.32 9 2 C6.03 2.66 3.06 3.32 0 4 C0 2.68 0 1.36 0 0 Z " fill="#D2BB71" transform="translate(457,207)"/>
<path d="M0 0 C3.3 0.99 6.6 1.98 10 3 C10 3.99 10 4.98 10 6 C6.51329166 4.8905928 3.22515763 3.73662334 0 2 C0 1.34 0 0.68 0 0 Z " fill="#C6B273" transform="translate(50,215)"/>
<path d="M0 0 C2.45823172 3.68734758 3.01242616 6.69699971 4 11 C3.01 11.495 3.01 11.495 2 12 C-0.13586678 8.79619983 -0.23132175 7.98060033 -0.125 4.3125 C-0.10695313 3.50425781 -0.08890625 2.69601563 -0.0703125 1.86328125 C-0.04710937 1.24839844 -0.02390625 0.63351563 0 0 Z " fill="#E3E295" transform="translate(259,55)"/>
<path d="M0 0 C0 0.33 0 0.66 0 1 C-1.41433206 1.2236337 -2.83167618 1.42826476 -4.25 1.625 C-5.03890625 1.74101562 -5.8278125 1.85703125 -6.640625 1.9765625 C-9.32152459 2.00319395 -10.72694089 1.36592084 -13 0 C-8.37078475 -1.0161692 -4.65537393 -0.83796731 0 0 Z " fill="#B5A265" transform="translate(241,167)"/>
<path d="M0 0 C3.875 1.75 3.875 1.75 5 4 C2.69 4.33 0.38 4.66 -2 5 C-1.34 3.35 -0.68 1.7 0 0 Z " fill="#E2E290" transform="translate(261,293)"/>
<path d="M0 0 C-1.5625 1.5625 -1.5625 1.5625 -4 3 C-7.75 2.6875 -7.75 2.6875 -11 2 C-11 1.67 -11 1.34 -11 1 C-3.57142857 -1.42857143 -3.57142857 -1.42857143 0 0 Z " fill="#DCDC94" transform="translate(472,218)"/>
<path d="M0 0 C2.475 0.495 2.475 0.495 5 1 C5 3.64 5 6.28 5 9 C2.67527795 6.14693203 1.2491742 3.45925163 0 0 Z " fill="#CAB46C" transform="translate(330,182)"/>
<path d="M0 0 C2.64 0.33 5.28 0.66 8 1 C4.5647952 3.29013653 3.014669 3.17842973 -1 3 C-0.67 2.01 -0.34 1.02 0 0 Z " fill="#E5CB7B" transform="translate(196,172)"/>
<path d="M0 0 C1.32 0.99 2.64 1.98 4 3 C2.02 5.97 2.02 5.97 0 9 C-1.15941038 5.52176885 -0.70820884 3.54104422 0 0 Z " fill="#DBDB92" transform="translate(116,453)"/>
<path d="M0 0 C-1.39332574 3.36720387 -2.9789286 4.9859524 -6 7 C-6.66 6.67 -7.32 6.34 -8 6 C-7.0479279 4.99403703 -6.08812654 3.99538437 -5.125 3 C-4.59132812 2.443125 -4.05765625 1.88625 -3.5078125 1.3125 C-2 0 -2 0 0 0 Z " fill="#D5BB6B" transform="translate(175,418)"/>
<path d="M0 0 C0.66 0 1.32 0 2 0 C0.8141763 3.37503669 -0.27573689 5.64722731 -3 8 C-3.66 7.67 -4.32 7.34 -5 7 C-4.21654285 5.82780457 -3.42297164 4.66236332 -2.625 3.5 C-2.18414062 2.8503125 -1.74328125 2.200625 -1.2890625 1.53125 C-0.65097656 0.77328125 -0.65097656 0.77328125 0 0 Z " fill="#1E1E0A" transform="translate(197,347)"/>
<path d="M0 0 C0.33 0 0.66 0 1 0 C1.33 3.63 1.66 7.26 2 11 C0.68 10.67 -0.64 10.34 -2 10 C-1.34 9.67 -0.68 9.34 0 9 C0 6.03 0 3.06 0 0 Z " fill="#F1F0A0" transform="translate(251,256)"/>
<path d="M0 0 C0.33 0 0.66 0 1 0 C1 2.64 1 5.28 1 8 C0.67 8 0.34 8 0 8 C0 5.36 0 2.72 0 0 Z " fill="#0C0B07" transform="translate(383,345)"/>
<path d="M0 0 C2.64 0 5.28 0 8 0 C8 0.33 8 0.66 8 1 C5.36 1 2.72 1 0 1 C0 0.67 0 0.34 0 0 Z " fill="#0C0B06" transform="translate(148,178)"/>
<path d="M0 0 C2.31 0 4.62 0 7 0 C7 0.33 7 0.66 7 1 C4.69 1 2.38 1 0 1 C0 0.67 0 0.34 0 0 Z " fill="#0B0B06" transform="translate(124,181)"/>
<path d="M0 0 C2.31 0 4.62 0 7 0 C7 0.33 7 0.66 7 1 C4.69 1 2.38 1 0 1 C0 0.67 0 0.34 0 0 Z " fill="#0D0C06" transform="translate(140,179)"/>
<path d="M0 0 C2.31 0 4.62 0 7 0 C7 0.33 7 0.66 7 1 C4.69 1 2.38 1 0 1 C0 0.67 0 0.34 0 0 Z " fill="#0C0B05" transform="translate(158,177)"/>
<path d="M0 0 C2.31 0 4.62 0 7 0 C7 0.33 7 0.66 7 1 C4.69 1 2.38 1 0 1 C0 0.67 0 0.34 0 0 Z " fill="#0C0B05" transform="translate(166,176)"/>
<path d="M0 0 C2.31 0 4.62 0 7 0 C7 0.33 7 0.66 7 1 C4.69 1 2.38 1 0 1 C0 0.67 0 0.34 0 0 Z " fill="#0B0C06" transform="translate(174,175)"/>
<path d="M0 0 C0.33 0 0.66 0 1 0 C1 1.98 1 3.96 1 6 C0.67 6 0.34 6 0 6 C0 4.02 0 2.04 0 0 Z " fill="#0B0C05" transform="translate(103,472)"/>
<path d="M0 0 C0.33 0 0.66 0 1 0 C1 1.98 1 3.96 1 6 C0.67 6 0.34 6 0 6 C0 4.02 0 2.04 0 0 Z " fill="#0B0D05" transform="translate(104,465)"/>
<path d="M0 0 C0.33 0 0.66 0 1 0 C1 1.98 1 3.96 1 6 C0.67 6 0.34 6 0 6 C0 4.02 0 2.04 0 0 Z " fill="#0D0C05" transform="translate(105,458)"/>
<path d="M0 0 C0.33 0 0.66 0 1 0 C1 1.98 1 3.96 1 6 C0.67 6 0.34 6 0 6 C0 4.02 0 2.04 0 0 Z " fill="#0D0C08" transform="translate(106,451)"/>
<path d="M0 0 C0.33 0 0.66 0 1 0 C1 1.98 1 3.96 1 6 C0.67 6 0.34 6 0 6 C0 4.02 0 2.04 0 0 Z " fill="#0C0A05" transform="translate(107,444)"/>
<path d="M0 0 C0.33 0 0.66 0 1 0 C1 1.98 1 3.96 1 6 C0.67 6 0.34 6 0 6 C0 4.02 0 2.04 0 0 Z " fill="#0C0B06" transform="translate(108,437)"/>
<path d="M0 0 C0.33 0 0.66 0 1 0 C1 1.98 1 3.96 1 6 C0.67 6 0.34 6 0 6 C0 4.02 0 2.04 0 0 Z " fill="#0C0D06" transform="translate(109,430)"/>
<path d="M0 0 C0.33 0 0.66 0 1 0 C1 1.98 1 3.96 1 6 C0.67 6 0.34 6 0 6 C0 4.02 0 2.04 0 0 Z " fill="#0C0C07" transform="translate(110,423)"/>
<path d="M0 0 C0.33 0 0.66 0 1 0 C1 1.98 1 3.96 1 6 C0.67 6 0.34 6 0 6 C0 4.02 0 2.04 0 0 Z " fill="#0B0C05" transform="translate(111,415)"/>
<path d="M0 0 C0.33 0 0.66 0 1 0 C1 1.98 1 3.96 1 6 C0.67 6 0.34 6 0 6 C0 4.02 0 2.04 0 0 Z " fill="#0D0C07" transform="translate(112,408)"/>
<path d="M0 0 C0.33 0 0.66 0 1 0 C1 1.98 1 3.96 1 6 C0.67 6 0.34 6 0 6 C0 4.02 0 2.04 0 0 Z " fill="#0D0C06" transform="translate(113,401)"/>
<path d="M0 0 C0.33 0 0.66 0 1 0 C1 1.98 1 3.96 1 6 C0.67 6 0.34 6 0 6 C0 4.02 0 2.04 0 0 Z " fill="#0C0B07" transform="translate(114,393)"/>
<path d="M0 0 C0.33 0 0.66 0 1 0 C1 1.98 1 3.96 1 6 C0.67 6 0.34 6 0 6 C0 4.02 0 2.04 0 0 Z " fill="#0C0B05" transform="translate(115,386)"/>
<path d="M0 0 C0.33 0 0.66 0 1 0 C1 1.98 1 3.96 1 6 C0.67 6 0.34 6 0 6 C0 4.02 0 2.04 0 0 Z " fill="#0C0B05" transform="translate(116,379)"/>
<path d="M0 0 C0.33 0 0.66 0 1 0 C1 1.98 1 3.96 1 6 C0.67 6 0.34 6 0 6 C0 4.02 0 2.04 0 0 Z " fill="#0B0B04" transform="translate(117,372)"/>
<path d="M0 0 C0.33 0 0.66 0 1 0 C1 1.98 1 3.96 1 6 C0.67 6 0.34 6 0 6 C0 4.02 0 2.04 0 0 Z " fill="#0B0B07" transform="translate(118,365)"/>
<path d="M0 0 C0.33 0 0.66 0 1 0 C1 1.98 1 3.96 1 6 C0.67 6 0.34 6 0 6 C0 4.02 0 2.04 0 0 Z " fill="#0B0C05" transform="translate(119,358)"/>
<path d="M0 0 C0.33 0 0.66 0 1 0 C1 1.98 1 3.96 1 6 C0.67 6 0.34 6 0 6 C0 4.02 0 2.04 0 0 Z " fill="#0A0C04" transform="translate(121,344)"/>
<path d="M0 0 C0.33 0 0.66 0 1 0 C1 1.98 1 3.96 1 6 C0.67 6 0.34 6 0 6 C0 4.02 0 2.04 0 0 Z " fill="#0C0B07" transform="translate(122,337)"/>
<path d="M0 0 C0.33 0 0.66 0 1 0 C1 1.98 1 3.96 1 6 C0.67 6 0.34 6 0 6 C0 4.02 0 2.04 0 0 Z " fill="#0C0B06" transform="translate(124,324)"/>
<path d="M0 0 C1.98 0 3.96 0 6 0 C6 0.33 6 0.66 6 1 C4.02 1 2.04 1 0 1 C0 0.67 0 0.34 0 0 Z " fill="#0B0C07" transform="translate(63,190)"/>
<path d="M0 0 C1.98 0 3.96 0 6 0 C6 0.33 6 0.66 6 1 C4.02 1 2.04 1 0 1 C0 0.67 0 0.34 0 0 Z " fill="#0C0B04" transform="translate(71,189)"/>
<path d="M0 0 C1.98 0 3.96 0 6 0 C6 0.33 6 0.66 6 1 C4.02 1 2.04 1 0 1 C0 0.67 0 0.34 0 0 Z " fill="#0D0B06" transform="translate(78,188)"/>
<path d="M0 0 C1.98 0 3.96 0 6 0 C6 0.33 6 0.66 6 1 C4.02 1 2.04 1 0 1 C0 0.67 0 0.34 0 0 Z " fill="#0C0B07" transform="translate(84,187)"/>
<path d="M0 0 C1.98 0 3.96 0 6 0 C6 0.33 6 0.66 6 1 C4.02 1 2.04 1 0 1 C0 0.67 0 0.34 0 0 Z " fill="#0D0C08" transform="translate(91,186)"/>
<path d="M0 0 C1.98 0 3.96 0 6 0 C6 0.33 6 0.66 6 1 C4.02 1 2.04 1 0 1 C0 0.67 0 0.34 0 0 Z " fill="#0C0B05" transform="translate(98,185)"/>
<path d="M0 0 C1.98 0 3.96 0 6 0 C6 0.33 6 0.66 6 1 C4.02 1 2.04 1 0 1 C0 0.67 0 0.34 0 0 Z " fill="#0C0C07" transform="translate(104,184)"/>
<path d="M0 0 C1.98 0 3.96 0 6 0 C6 0.33 6 0.66 6 1 C4.02 1 2.04 1 0 1 C0 0.67 0 0.34 0 0 Z " fill="#0A0B04" transform="translate(111,183)"/>
<path d="M0 0 C1.98 0 3.96 0 6 0 C6 0.33 6 0.66 6 1 C4.02 1 2.04 1 0 1 C0 0.67 0 0.34 0 0 Z " fill="#0A0B07" transform="translate(118,182)"/>
<path d="M0 0 C1.98 0 3.96 0 6 0 C6 0.33 6 0.66 6 1 C4.02 1 2.04 1 0 1 C0 0.67 0 0.34 0 0 Z " fill="#0D0B06" transform="translate(133,180)"/>
<path d="M0 0 C1.98 0 3.96 0 6 0 C6 0.33 6 0.66 6 1 C4.02 1 2.04 1 0 1 C0 0.67 0 0.34 0 0 Z " fill="#0C0C07" transform="translate(252,29)"/>
<path d="M0 0 C0.33 0 0.66 0 1 0 C1 1.65 1 3.3 1 5 C0.67 5 0.34 5 0 5 C0 3.35 0 1.7 0 0 Z " fill="#0C0B07" transform="translate(387,371)"/>
<path d="M0 0 C0.33 0 0.66 0 1 0 C1 1.65 1 3.3 1 5 C0.67 5 0.34 5 0 5 C0 3.35 0 1.7 0 0 Z " fill="#0C0A05" transform="translate(386,366)"/>
<path d="M0 0 C0.33 0 0.66 0 1 0 C1 1.65 1 3.3 1 5 C0.67 5 0.34 5 0 5 C0 3.35 0 1.7 0 0 Z " fill="#0D0C08" transform="translate(385,360)"/>
<path d="M0 0 C0.33 0 0.66 0 1 0 C1 1.65 1 3.3 1 5 C0.67 5 0.34 5 0 5 C0 3.35 0 1.7 0 0 Z " fill="#0A0C04" transform="translate(384,354)"/>
<path d="M0 0 C0.33 0 0.66 0 1 0 C1 1.65 1 3.3 1 5 C0.67 5 0.34 5 0 5 C0 3.35 0 1.7 0 0 Z " fill="#0A0B04" transform="translate(120,351)"/>
<path d="M0 0 C0.33 0 0.66 0 1 0 C1 1.65 1 3.3 1 5 C0.67 5 0.34 5 0 5 C0 3.35 0 1.7 0 0 Z " fill="#0C0C05" transform="translate(382,333)"/>
<path d="M0 0 C0.33 0 0.66 0 1 0 C1 1.65 1 3.3 1 5 C0.67 5 0.34 5 0 5 C0 3.35 0 1.7 0 0 Z " fill="#0C0A06" transform="translate(123,331)"/>
<path d="M0 0 C0.33 0 0.66 0 1 0 C1 1.65 1 3.3 1 5 C0.67 5 0.34 5 0 5 C0 3.35 0 1.7 0 0 Z " fill="#0D0C06" transform="translate(125,318)"/>
<path d="M0 0 C1.65 0 3.3 0 5 0 C5 0.33 5 0.66 5 1 C3.35 1 1.7 1 0 1 C0 0.67 0 0.34 0 0 Z " fill="#0C0C07" transform="translate(479,198)"/>
<path d="M0 0 C1.65 0 3.3 0 5 0 C5 0.33 5 0.66 5 1 C3.35 1 1.7 1 0 1 C0 0.67 0 0.34 0 0 Z " fill="#0C0B07" transform="translate(463,195)"/>
<path d="M0 0 C1.65 0 3.3 0 5 0 C5 0.33 5 0.66 5 1 C3.35 1 1.7 1 0 1 C0 0.67 0 0.34 0 0 Z " fill="#0C0B07" transform="translate(457,194)"/>
<path d="M0 0 C1.65 0 3.3 0 5 0 C5 0.33 5 0.66 5 1 C3.35 1 1.7 1 0 1 C0 0.67 0 0.34 0 0 Z " fill="#0C0C05" transform="translate(45,193)"/>
<path d="M0 0 C1.65 0 3.3 0 5 0 C5 0.33 5 0.66 5 1 C3.35 1 1.7 1 0 1 C0 0.67 0 0.34 0 0 Z " fill="#0C0B06" transform="translate(446,192)"/>
<path d="M0 0 C1.65 0 3.3 0 5 0 C5 0.33 5 0.66 5 1 C3.35 1 1.7 1 0 1 C0 0.67 0 0.34 0 0 Z " fill="#0B0C07" transform="translate(51,192)"/>
<path d="M0 0 C1.65 0 3.3 0 5 0 C5 0.33 5 0.66 5 1 C3.35 1 1.7 1 0 1 C0 0.67 0 0.34 0 0 Z " fill="#0A0C05" transform="translate(440,191)"/>
<path d="M0 0 C1.65 0 3.3 0 5 0 C5 0.33 5 0.66 5 1 C3.35 1 1.7 1 0 1 C0 0.67 0 0.34 0 0 Z " fill="#0B0C05" transform="translate(57,191)"/>
<path d="M0 0 C1.65 0 3.3 0 5 0 C5 0.33 5 0.66 5 1 C3.35 1 1.7 1 0 1 C0 0.67 0 0.34 0 0 Z " fill="#0C0D06" transform="translate(434,190)"/>
<path d="M0 0 C1.65 0 3.3 0 5 0 C5 0.33 5 0.66 5 1 C3.35 1 1.7 1 0 1 C0 0.67 0 0.34 0 0 Z " fill="#0A0C04" transform="translate(428,189)"/>
<path d="M0 0 C1.65 0 3.3 0 5 0 C5 0.33 5 0.66 5 1 C3.35 1 1.7 1 0 1 C0 0.67 0 0.34 0 0 Z " fill="#0C0B06" transform="translate(422,188)"/>
<path d="M0 0 C1.65 0 3.3 0 5 0 C5 0.33 5 0.66 5 1 C3.35 1 1.7 1 0 1 C0 0.67 0 0.34 0 0 Z " fill="#0A0B06" transform="translate(417,187)"/>
<path d="M0 0 C1.65 0 3.3 0 5 0 C5 0.33 5 0.66 5 1 C3.35 1 1.7 1 0 1 C0 0.67 0 0.34 0 0 Z " fill="#0C0B05" transform="translate(411,186)"/>
<path d="M0 0 C1.65 0 3.3 0 5 0 C5 0.33 5 0.66 5 1 C3.35 1 1.7 1 0 1 C0 0.67 0 0.34 0 0 Z " fill="#0D0C07" transform="translate(405,185)"/>
<path d="M0 0 C1.65 0 3.3 0 5 0 C5 0.33 5 0.66 5 1 C3.35 1 1.7 1 0 1 C0 0.67 0 0.34 0 0 Z " fill="#0C0A06" transform="translate(399,184)"/>
<path d="M0 0 C1.65 0 3.3 0 5 0 C5 0.33 5 0.66 5 1 C3.35 1 1.7 1 0 1 C0 0.67 0 0.34 0 0 Z " fill="#0A0B06" transform="translate(393,183)"/>
<path d="M0 0 C1.65 0 3.3 0 5 0 C5 0.33 5 0.66 5 1 C3.35 1 1.7 1 0 1 C0 0.67 0 0.34 0 0 Z " fill="#0B0C07" transform="translate(387,182)"/>
<path d="M0 0 C1.65 0 3.3 0 5 0 C5 0.33 5 0.66 5 1 C3.35 1 1.7 1 0 1 C0 0.67 0 0.34 0 0 Z " fill="#0C0B06" transform="translate(381,181)"/>
<path d="M0 0 C1.65 0 3.3 0 5 0 C5 0.33 5 0.66 5 1 C3.35 1 1.7 1 0 1 C0 0.67 0 0.34 0 0 Z " fill="#0C0B07" transform="translate(375,180)"/>
<path d="M0 0 C1.65 0 3.3 0 5 0 C5 0.33 5 0.66 5 1 C3.35 1 1.7 1 0 1 C0 0.67 0 0.34 0 0 Z " fill="#0C0B05" transform="translate(369,179)"/>
<path d="M0 0 C1.65 0 3.3 0 5 0 C5 0.33 5 0.66 5 1 C3.35 1 1.7 1 0 1 C0 0.67 0 0.34 0 0 Z " fill="#0C0B06" transform="translate(363,178)"/>
<path d="M0 0 C1.65 0 3.3 0 5 0 C5 0.33 5 0.66 5 1 C3.35 1 1.7 1 0 1 C0 0.67 0 0.34 0 0 Z " fill="#0D0C06" transform="translate(356,177)"/>
<path d="M0 0 C1.65 0 3.3 0 5 0 C5 0.33 5 0.66 5 1 C3.35 1 1.7 1 0 1 C0 0.67 0 0.34 0 0 Z " fill="#0C0A05" transform="translate(350,176)"/>
<path d="M0 0 C1.65 0 3.3 0 5 0 C5 0.33 5 0.66 5 1 C3.35 1 1.7 1 0 1 C0 0.67 0 0.34 0 0 Z " fill="#0B0C07" transform="translate(344,175)"/>
<path d="M0 0 C1.65 0 3.3 0 5 0 C5 0.33 5 0.66 5 1 C3.35 1 1.7 1 0 1 C0 0.67 0 0.34 0 0 Z " fill="#0B0B07" transform="translate(337,174)"/>
<path d="M0 0 C1.65 0 3.3 0 5 0 C5 0.33 5 0.66 5 1 C3.35 1 1.7 1 0 1 C0 0.67 0 0.34 0 0 Z " fill="#0A0C04" transform="translate(331,173)"/>
<path d="M0 0 C4 1 4 1 4 1 Z " fill="#0C0A06" transform="translate(404,481)"/>
<path d="M0 0 C1 4 1 4 1 4 Z " fill="#0B0C05" transform="translate(412,469)"/>
<path d="M0 0 C1 4 1 4 1 4 Z " fill="#0B0904" transform="translate(411,465)"/>
<path d="M0 0 C1 4 1 4 1 4 Z " fill="#0C0B05" transform="translate(398,420)"/>
<path d="M0 0 C1 4 1 4 1 4 Z " fill="#0C0B05" transform="translate(397,416)"/>
<path d="M0 0 C4 1 4 1 4 1 Z " fill="#0D0C05" transform="translate(251,411)"/>
<path d="M0 0 C1 4 1 4 1 4 Z " fill="#0B0B07" transform="translate(394,404)"/>
<path d="M0 0 C1 4 1 4 1 4 Z " fill="#0B0C05" transform="translate(393,400)"/>
<path d="M0 0 C1 4 1 4 1 4 Z " fill="#0C0C08" transform="translate(392,396)"/>
<path d="M0 0 C1 4 1 4 1 4 Z " fill="#0C0B05" transform="translate(391,391)"/>
<path d="M0 0 C1 4 1 4 1 4 Z " fill="#0D0C06" transform="translate(390,387)"/>
<path d="M0 0 C1 4 1 4 1 4 Z " fill="#0B0C05" transform="translate(389,382)"/>
<path d="M0 0 C1 4 1 4 1 4 Z " fill="#0B0C05" transform="translate(388,377)"/>
<path d="M0 0 C0.99 0.495 0.99 0.495 2 1 C1.67 1.66 1.34 2.32 1 3 C0.67 2.01 0.34 1.02 0 0 Z " fill="#0C0B05" transform="translate(50,240)"/>
<path d="M0 0 C4 1 4 1 4 1 Z " fill="#0B0C06" transform="translate(484,199)"/>
<path d="M0 0 C4 1 4 1 4 1 Z " fill="#0C0B04" transform="translate(474,197)"/>
<path d="M0 0 C4 1 4 1 4 1 Z " fill="#0C0B04" transform="translate(469,196)"/>
<path d="M0 0 C4 1 4 1 4 1 Z " fill="#0C0A06" transform="translate(40,194)"/>
<path d="M0 0 C4 1 4 1 4 1 Z " fill="#0C0B05" transform="translate(452,193)"/>
<path d="M0 0 C3 1 3 1 3 1 Z " fill="#0B0C06" transform="translate(105,482)"/>
<path d="" fill="#090A05" transform="translate(0,0)"/>
<path d="" fill="#0B0B06" transform="translate(0,0)"/>
<path d="" fill="#0B0A05" transform="translate(0,0)"/>
<path d="" fill="#0C0D06" transform="translate(0,0)"/>
<path d="" fill="#0C0C06" transform="translate(0,0)"/>
<path d="" fill="#0B0C05" transform="translate(0,0)"/>
<path d="" fill="#0D0C05" transform="translate(0,0)"/>
<path d="" fill="#0A0B05" transform="translate(0,0)"/>
<path d="" fill="#0D0B07" transform="translate(0,0)"/>
<path d="" fill="#0C0D05" transform="translate(0,0)"/>
<path d="M0 0 C3 1 3 1 3 1 Z " fill="#0B0C05" transform="translate(248,412)"/>
<path d="" fill="#0C0B05" transform="translate(0,0)"/>
<path d="" fill="#0C0C08" transform="translate(0,0)"/>
<path d="" fill="#0D0B06" transform="translate(0,0)"/>
<path d="M0 0 C3 1 3 1 3 1 Z " fill="#0C0D06" transform="translate(25,198)"/>
<path d="M0 0 C3 1 3 1 3 1 Z " fill="#0C0C08" transform="translate(29,197)"/>
<path d="M0 0 C3 1 3 1 3 1 Z " fill="#0D0B07" transform="translate(32,196)"/>
<path d="M0 0 C3 1 3 1 3 1 Z " fill="#0D0C08" transform="translate(36,195)"/>
<path d="" fill="#0D0C05" transform="translate(0,0)"/>
<path d="" fill="#0C0B03" transform="translate(0,0)"/>
<path d="" fill="#0C0B05" transform="translate(0,0)"/>
<path d="" fill="#0C0D07" transform="translate(0,0)"/>
<path d="" fill="#0D0C06" transform="translate(0,0)"/>
<path d="" fill="#0B0B05" transform="translate(0,0)"/>
<path d="M0 0 C2 1 2 1 2 1 Z " fill="#0C0B07" transform="translate(108,481)"/>
<path d="M0 0 C2 1 2 1 2 1 Z " fill="#0C0B05" transform="translate(402,480)"/>
<path d="M0 0 C2 1 2 1 2 1 Z " fill="#0D0C07" transform="translate(110,480)"/>
<path d="M0 0 C2 1 2 1 2 1 Z " fill="#0B0B06" transform="translate(399,479)"/>
<path d="M0 0 C2 1 2 1 2 1 Z " fill="#0C0A05" transform="translate(112,479)"/>
<path d="M0 0 C2 1 2 1 2 1 Z " fill="#0A0B04" transform="translate(397,478)"/>
<path d="M0 0 C2 1 2 1 2 1 Z " fill="#0B0C06" transform="translate(392,476)"/>
<path d="M0 0 C2 1 2 1 2 1 Z " fill="#0C0D06" transform="translate(390,475)"/>
<path d="M0 0 C2 1 2 1 2 1 Z " fill="#0B0C05" transform="translate(385,473)"/>
<path d="M0 0 C2 1 2 1 2 1 Z " fill="#0D0C06" transform="translate(123,473)"/>
<path d="M0 0 C2 1 2 1 2 1 Z " fill="#0B0C05" transform="translate(383,472)"/>
<path d="M0 0 C2 1 2 1 2 1 Z " fill="#0C0D06" transform="translate(378,470)"/>
<path d="M0 0 C2 1 2 1 2 1 Z " fill="#0C0B05" transform="translate(376,469)"/>
<path d="M0 0 C2 1 2 1 2 1 Z " fill="#0C0B05" transform="translate(371,467)"/>
<path d="M0 0 C2 1 2 1 2 1 Z " fill="#0B0C05" transform="translate(134,467)"/>
<path d="M0 0 C2 1 2 1 2 1 Z " fill="#0D0C06" transform="translate(369,466)"/>
<path d="M0 0 C2 1 2 1 2 1 Z " fill="#0C0D06" transform="translate(136,466)"/>
<path d="M0 0 C2 1 2 1 2 1 Z " fill="#0D0C05" transform="translate(138,465)"/>
<path d="M0 0 C2 1 2 1 2 1 Z " fill="#0C0D06" transform="translate(364,464)"/>
<path d="M0 0 C2 1 2 1 2 1 Z " fill="#0C0B07" transform="translate(140,464)"/>
<path d="M0 0 C2 1 2 1 2 1 Z " fill="#080902" transform="translate(362,463)"/>
<path d="M0 0 C2 1 2 1 2 1 Z " fill="#0D0C06" transform="translate(142,463)"/>
<path d="M0 0 C2 1 2 1 2 1 Z " fill="#0A0C04" transform="translate(359,462)"/>
<path d="M0 0 C2 1 2 1 2 1 Z " fill="#0C0B05" transform="translate(144,462)"/>
<path d="M0 0 C2 1 2 1 2 1 Z " fill="#0B0A03" transform="translate(357,461)"/>
<path d="M0 0 C2 1 2 1 2 1 Z " fill="#0C0B05" transform="translate(146,461)"/>
<path d="" fill="#0D0C08" transform="translate(0,0)"/>
<path d="M0 0 C2 1 2 1 2 1 Z " fill="#0C0B06" transform="translate(355,460)"/>
<path d="M0 0 C2 1 2 1 2 1 Z " fill="#0E0D09" transform="translate(148,460)"/>
<path d="M0 0 C2 1 2 1 2 1 Z " fill="#0B0A03" transform="translate(150,459)"/>
<path d="M0 0 C2 1 2 1 2 1 Z " fill="#0C0B05" transform="translate(350,458)"/>
<path d="M0 0 C2 1 2 1 2 1 Z " fill="#0B0C03" transform="translate(152,458)"/>
<path d="M0 0 C2 1 2 1 2 1 Z " fill="#0C0B04" transform="translate(348,457)"/>
<path d="M0 0 C2 1 2 1 2 1 Z " fill="#0C0B05" transform="translate(346,456)"/>
<path d="M0 0 C2 1 2 1 2 1 Z " fill="#0C0C06" transform="translate(343,455)"/>
<path d="M0 0 C2 1 2 1 2 1 Z " fill="#0C0D05" transform="translate(341,454)"/>
<path d="M0 0 C2 1 2 1 2 1 Z " fill="#0B0C06" transform="translate(339,453)"/>
<path d="M0 0 C2 1 2 1 2 1 Z " fill="#0A0B06" transform="translate(337,452)"/>
<path d="M0 0 C2 1 2 1 2 1 Z " fill="#0C0B04" transform="translate(335,451)"/>
<path d="" fill="#0A0C04" transform="translate(0,0)"/>
<path d="" fill="#0A0B05" transform="translate(0,0)"/>
<path d="M0 0 C2 1 2 1 2 1 Z " fill="#0D0C04" transform="translate(326,447)"/>
<path d="M0 0 C2 1 2 1 2 1 Z " fill="#0C0B05" transform="translate(324,446)"/>
<path d="M0 0 C2 1 2 1 2 1 Z " fill="#0D0C07" transform="translate(322,445)"/>
<path d="" fill="#0C0D06" transform="translate(0,0)"/>
<path d="M0 0 C2 1 2 1 2 1 Z " fill="#0C0A06" transform="translate(320,444)"/>
<path d="M0 0 C2 1 2 1 2 1 Z " fill="#0C0D06" transform="translate(180,444)"/>
<path d="M0 0 C2 1 2 1 2 1 Z " fill="#0C0D06" transform="translate(318,443)"/>
<path d="M0 0 C2 1 2 1 2 1 Z " fill="#0C0B04" transform="translate(182,443)"/>
<path d="M0 0 C2 1 2 1 2 1 Z " fill="#0A0C04" transform="translate(316,442)"/>
<path d="M0 0 C2 1 2 1 2 1 Z " fill="#0C0C07" transform="translate(184,442)"/>
<path d="M0 0 C2 1 2 1 2 1 Z " fill="#0C0B06" transform="translate(186,441)"/>
<path d="M0 0 C2 1 2 1 2 1 Z " fill="#0D0C08" transform="translate(188,440)"/>
<path d="M0 0 C2 1 2 1 2 1 Z " fill="#0B0C05" transform="translate(190,439)"/>
<path d="M0 0 C2 1 2 1 2 1 Z " fill="#0C0B05" transform="translate(192,438)"/>
<path d="M0 0 C2 1 2 1 2 1 Z " fill="#0C0B07" transform="translate(194,437)"/>
<path d="M0 0 C2 1 2 1 2 1 Z " fill="#0C0D06" transform="translate(196,436)"/>
<path d="M0 0 C2 1 2 1 2 1 Z " fill="#0B0C04" transform="translate(198,435)"/>
<path d="M0 0 C2 1 2 1 2 1 Z " fill="#0B0B07" transform="translate(291,430)"/>
<path d="M0 0 C2 1 2 1 2 1 Z " fill="#0D0C05" transform="translate(211,429)"/>
<path d="M0 0 C2 1 2 1 2 1 Z " fill="#0D0C04" transform="translate(213,428)"/>
<path d="M0 0 C2 1 2 1 2 1 Z " fill="#0C0C04" transform="translate(215,427)"/>
<path d="M0 0 C2 1 2 1 2 1 Z " fill="#0C0D05" transform="translate(217,426)"/>
<path d="M0 0 C2 1 2 1 2 1 Z " fill="#0D0C06" transform="translate(219,425)"/>
<path d="M0 0 C2 1 2 1 2 1 Z " fill="#0C0B05" transform="translate(221,424)"/>
<path d="M0 0 C2 1 2 1 2 1 Z " fill="#0C0B04" transform="translate(277,423)"/>
<path d="M0 0 C2 1 2 1 2 1 Z " fill="#0B0C05" transform="translate(223,423)"/>
<path d="M0 0 C2 1 2 1 2 1 Z " fill="#0C0D04" transform="translate(271,420)"/>
<path d="M0 0 C2 1 2 1 2 1 Z " fill="#0D0C05" transform="translate(269,419)"/>
<path d="M0 0 C2 1 2 1 2 1 Z " fill="#0D0C04" transform="translate(267,418)"/>
<path d="M0 0 C2 1 2 1 2 1 Z " fill="#0D0C08" transform="translate(234,418)"/>
<path d="M0 0 C2 1 2 1 2 1 Z " fill="#0D0C06" transform="translate(265,417)"/>
<path d="M0 0 C2 1 2 1 2 1 Z " fill="#0D0C06" transform="translate(236,417)"/>
<path d="M0 0 C2 1 2 1 2 1 Z " fill="#0B0B04" transform="translate(263,416)"/>
<path d="M0 0 C2 1 2 1 2 1 Z " fill="#0D0C05" transform="translate(238,416)"/>
<path d="M0 0 C2 1 2 1 2 1 Z " fill="#0B0C05" transform="translate(261,415)"/>
<path d="M0 0 C2 1 2 1 2 1 Z " fill="#0C0B02" transform="translate(241,415)"/>
<path d="M0 0 C2 1 2 1 2 1 Z " fill="#0B0C05" transform="translate(259,414)"/>
<path d="M0 0 C2 1 2 1 2 1 Z " fill="#0C0B05" transform="translate(243,414)"/>
<path d="M0 0 C2 1 2 1 2 1 Z " fill="#0C0D06" transform="translate(257,413)"/>
<path d="M0 0 C2 1 2 1 2 1 Z " fill="#0C0D06" transform="translate(255,412)"/>
<path d="" fill="#0A0C03" transform="translate(0,0)"/>
<path d="" fill="#0C0B04" transform="translate(0,0)"/>
<path d="" fill="#0C0C05" transform="translate(0,0)"/>
<path d="" fill="#0A0C05" transform="translate(0,0)"/>
<path d="" fill="#0C0B05" transform="translate(0,0)"/>
<path d="" fill="#0D0C06" transform="translate(0,0)"/>
<path d="" fill="#0B0A03" transform="translate(0,0)"/>
<path d="" fill="#0D0C07" transform="translate(0,0)"/>
<path d="" fill="#0C0D06" transform="translate(0,0)"/>
<path d="" fill="#0C0C04" transform="translate(0,0)"/>
<path d="" fill="#0C0B04" transform="translate(0,0)"/>
<path d="" fill="#0A0C04" transform="translate(0,0)"/>
<path d="" fill="#0D0C06" transform="translate(0,0)"/>
<path d="" fill="#0A0C04" transform="translate(0,0)"/>
<path d="" fill="#0D0C03" transform="translate(0,0)"/>
<path d="" fill="#0B0C05" transform="translate(0,0)"/>
<path d="" fill="#0D0C06" transform="translate(0,0)"/>
<path d="" fill="#0E0D07" transform="translate(0,0)"/>
<path d="" fill="#0B0A03" transform="translate(0,0)"/>
<path d="" fill="#0C0D05" transform="translate(0,0)"/>
<path d="" fill="#090B03" transform="translate(0,0)"/>
<path d="" fill="#0C0D06" transform="translate(0,0)"/>
<path d="" fill="#0B0C05" transform="translate(0,0)"/>
<path d="" fill="#0A0B04" transform="translate(0,0)"/>
<path d="" fill="#0C0B06" transform="translate(0,0)"/>
<path d="" fill="#0C0B06" transform="translate(0,0)"/>
<path d="" fill="#0C0B07" transform="translate(0,0)"/>
<path d="" fill="#0D0C06" transform="translate(0,0)"/>
<path d="" fill="#0D0C06" transform="translate(0,0)"/>
<path d="" fill="#0D0C06" transform="translate(0,0)"/>
<path d="" fill="#0C0C08" transform="translate(0,0)"/>
<path d="" fill="#0D0C08" transform="translate(0,0)"/>
<path d="" fill="#0A0C04" transform="translate(0,0)"/>
<path d="" fill="#0D0B07" transform="translate(0,0)"/>
<path d="" fill="#0B0B05" transform="translate(0,0)"/>
<path d="" fill="#0D0C06" transform="translate(0,0)"/>
<path d="" fill="#0B0D05" transform="translate(0,0)"/>
<path d="" fill="#0D0C06" transform="translate(0,0)"/>
<path d="" fill="#0D0C06" transform="translate(0,0)"/>
<path d="" fill="#0D0B06" transform="translate(0,0)"/>
<path d="" fill="#0C0B04" transform="translate(0,0)"/>
<path d="" fill="#0C0A06" transform="translate(0,0)"/>
<path d="" fill="#0B0C05" transform="translate(0,0)"/>
<path d="" fill="#0B0B07" transform="translate(0,0)"/>
<path d="" fill="#0A0C03" transform="translate(0,0)"/>
<path d="" fill="#0B0C06" transform="translate(0,0)"/>
<path d="" fill="#0D0E09" transform="translate(0,0)"/>
<path d="" fill="#0C0C07" transform="translate(0,0)"/>
<path d="" fill="#0A0B06" transform="translate(0,0)"/>
<path d="" fill="#090A05" transform="translate(0,0)"/>
<path d="" fill="#0C0B05" transform="translate(0,0)"/>
<path d="" fill="#0B0B07" transform="translate(0,0)"/>
<path d="" fill="#0D0C05" transform="translate(0,0)"/>
<path d="" fill="#0C0B04" transform="translate(0,0)"/>
<path d="" fill="#0C0B04" transform="translate(0,0)"/>
<path d="" fill="#0D0C04" transform="translate(0,0)"/>
<path d="" fill="#0D0C04" transform="translate(0,0)"/>
<path d="" fill="#0C0C05" transform="translate(0,0)"/>
<path d="" fill="#0B0A04" transform="translate(0,0)"/>
<path d="" fill="#0C0B06" transform="translate(0,0)"/>
<path d="" fill="#0C0A06" transform="translate(0,0)"/>
<path d="" fill="#0B0C05" transform="translate(0,0)"/>
<path d="" fill="#0B0B04" transform="translate(0,0)"/>
<path d="" fill="#0A0C04" transform="translate(0,0)"/>
<path d="" fill="#0C0B04" transform="translate(0,0)"/>
<path d="" fill="#0D0C06" transform="translate(0,0)"/>
<path d="" fill="#0C0A05" transform="translate(0,0)"/>
<path d="" fill="#0C0B05" transform="translate(0,0)"/>
<path d="" fill="#0C0C07" transform="translate(0,0)"/>
<path d="" fill="#0C0B05" transform="translate(0,0)"/>
<path d="" fill="#0C0C07" transform="translate(0,0)"/>
<path d="" fill="#0D0C06" transform="translate(0,0)"/>
<path d="" fill="#0C0B04" transform="translate(0,0)"/>
<path d="" fill="#0D0C05" transform="translate(0,0)"/>
<path d="" fill="#0B0A03" transform="translate(0,0)"/>
<path d="" fill="#0B0C04" transform="translate(0,0)"/>
<path d="" fill="#0C0B05" transform="translate(0,0)"/>
<path d="" fill="#0C0B04" transform="translate(0,0)"/>
<path d="" fill="#0C0B05" transform="translate(0,0)"/>
<path d="" fill="#0D0C08" transform="translate(0,0)"/>
<path d="" fill="#0D0C06" transform="translate(0,0)"/>
<path d="" fill="#0D0C05" transform="translate(0,0)"/>
<path d="" fill="#0D0C05" transform="translate(0,0)"/>
<path d="" fill="#0C0B06" transform="translate(0,0)"/>
<path d="" fill="#0C0D06" transform="translate(0,0)"/>
<path d="" fill="#0B0C06" transform="translate(0,0)"/>
<path d="" fill="#0B0B07" transform="translate(0,0)"/>
<path d="" fill="#0B0C06" transform="translate(0,0)"/>
<path d="" fill="#0D0C06" transform="translate(0,0)"/>
<path d="" fill="#0D0C06" transform="translate(0,0)"/>
<path d="" fill="#0D0C06" transform="translate(0,0)"/>
<path d="" fill="#090902" transform="translate(0,0)"/>
<path d="" fill="#0C0B05" transform="translate(0,0)"/>
<path d="" fill="#0C0B05" transform="translate(0,0)"/>
<path d="" fill="#0A0A03" transform="translate(0,0)"/>
<path d="" fill="#0C0D06" transform="translate(0,0)"/>
<path d="" fill="#0C0D06" transform="translate(0,0)"/>
<path d="" fill="#0B0C06" transform="translate(0,0)"/>
<path d="" fill="#0A0C04" transform="translate(0,0)"/>
<path d="" fill="#0C0B06" transform="translate(0,0)"/>
<path d="" fill="#0C0B06" transform="translate(0,0)"/>
<path d="" fill="#0D0C06" transform="translate(0,0)"/>
<path d="" fill="#0B0C05" transform="translate(0,0)"/>
<path d="" fill="#0D0C06" transform="translate(0,0)"/>
<path d="" fill="#0D0C08" transform="translate(0,0)"/>
<path d="" fill="#0A0B06" transform="translate(0,0)"/>
<path d="" fill="#0C0C07" transform="translate(0,0)"/>
<path d="" fill="#0D0C06" transform="translate(0,0)"/>
<path d="" fill="#0C0D06" transform="translate(0,0)"/>
<path d="" fill="#0B0C05" transform="translate(0,0)"/>
<path d="" fill="#0C0D06" transform="translate(0,0)"/>
<path d="" fill="#0C0B05" transform="translate(0,0)"/>
<path d="" fill="#090A05" transform="translate(0,0)"/>
<path d="" fill="#090A03" transform="translate(0,0)"/>
<path d="" fill="#0C0D06" transform="translate(0,0)"/>
<path d="" fill="#0C0D04" transform="translate(0,0)"/>
<path d="" fill="#0D0E07" transform="translate(0,0)"/>
<path d="" fill="#0D0C06" transform="translate(0,0)"/>
<path d="" fill="#0D0C06" transform="translate(0,0)"/>
<path d="" fill="#0D0C06" transform="translate(0,0)"/>
<path d="" fill="#0D0C04" transform="translate(0,0)"/>
<path d="" fill="#0D0C04" transform="translate(0,0)"/>
<path d="" fill="#0C0B04" transform="translate(0,0)"/>
<path d="" fill="#0D0C06" transform="translate(0,0)"/>
<path d="" fill="#0A0C04" transform="translate(0,0)"/>
<path d="" fill="#0D0E07" transform="translate(0,0)"/>
<path d="" fill="#0C0D06" transform="translate(0,0)"/>
<path d="" fill="#0D0C06" transform="translate(0,0)"/>
<path d="" fill="#0D0C04" transform="translate(0,0)"/>
<path d="" fill="#0D0C06" transform="translate(0,0)"/>
<path d="" fill="#0D0C06" transform="translate(0,0)"/>
<path d="" fill="#0C0A06" transform="translate(0,0)"/>
<path d="" fill="#0D0C06" transform="translate(0,0)"/>
<path d="" fill="#0D0C08" transform="translate(0,0)"/>
<path d="" fill="#0D0C06" transform="translate(0,0)"/>
<path d="" fill="#0C0B04" transform="translate(0,0)"/>
<path d="" fill="#0D0C06" transform="translate(0,0)"/>
<path d="" fill="#0C0B04" transform="translate(0,0)"/>
<path d="" fill="#0D0C06" transform="translate(0,0)"/>
<path d="" fill="#0C0B04" transform="translate(0,0)"/>
<path d="" fill="#0C0B04" transform="translate(0,0)"/>
<path d="" fill="#0D0C06" transform="translate(0,0)"/>
<path d="" fill="#0A0C04" transform="translate(0,0)"/>
<path d="" fill="#0C0B04" transform="translate(0,0)"/>
<path d="" fill="#0A0C04" transform="translate(0,0)"/>
<path d="" fill="#0B0A03" transform="translate(0,0)"/>
<path d="" fill="#0C0B04" transform="translate(0,0)"/>
<path d="" fill="#0E0D07" transform="translate(0,0)"/>
<path d="" fill="#0C0D06" transform="translate(0,0)"/>
<path d="" fill="#0D0C06" transform="translate(0,0)"/>
<path d="" fill="#0C0A06" transform="translate(0,0)"/>
<path d="" fill="#0A0B06" transform="translate(0,0)"/>
<path d="" fill="#0A0C04" transform="translate(0,0)"/>
<path d="" fill="#0D0C06" transform="translate(0,0)"/>
<path d="" fill="#0C0B04" transform="translate(0,0)"/>
<path d="" fill="#0D0C04" transform="translate(0,0)"/>
<path d="" fill="#0C0B04" transform="translate(0,0)"/>
<path d="" fill="#0C0B04" transform="translate(0,0)"/>
<path d="" fill="#0D0C06" transform="translate(0,0)"/>
<path d="" fill="#0C0B04" transform="translate(0,0)"/>
<path d="" fill="#0D0C06" transform="translate(0,0)"/>
<path d="" fill="#0B0A03" transform="translate(0,0)"/>
<path d="" fill="#0D0C06" transform="translate(0,0)"/>
<path d="" fill="#0E0D07" transform="translate(0,0)"/>
<path d="" fill="#0A0C02" transform="translate(0,0)"/>
<path d="" fill="#090B01" transform="translate(0,0)"/>
<path d="" fill="#0D0C06" transform="translate(0,0)"/>
<path d="" fill="#0D0E07" transform="translate(0,0)"/>
<path d="" fill="#0C0D06" transform="translate(0,0)"/>
<path d="" fill="#0C0D06" transform="translate(0,0)"/>
<path d="" fill="#0A0C04" transform="translate(0,0)"/>
<path d="" fill="#0A0C04" transform="translate(0,0)"/>
<path d="" fill="#0A0C04" transform="translate(0,0)"/>
<path d="" fill="#0E0D07" transform="translate(0,0)"/>
<path d="" fill="#0D0C06" transform="translate(0,0)"/>
<path d="" fill="#0E0D07" transform="translate(0,0)"/>
<path d="" fill="#0A0C04" transform="translate(0,0)"/>
<path d="" fill="#0C0D06" transform="translate(0,0)"/>
<path d="" fill="#0D0C06" transform="translate(0,0)"/>
<path d="" fill="#0D0C06" transform="translate(0,0)"/>
<path d="" fill="#0D0C06" transform="translate(0,0)"/>
<path d="" fill="#0B0A03" transform="translate(0,0)"/>
<path d="" fill="#0D0C06" transform="translate(0,0)"/>
<path d="" fill="#0D0C06" transform="translate(0,0)"/>
<path d="" fill="#0D0C06" transform="translate(0,0)"/>
<path d="" fill="#0E0D09" transform="translate(0,0)"/>
<path d="" fill="#0A0B06" transform="translate(0,0)"/>
<path d="" fill="#0A0B06" transform="translate(0,0)"/>
<path d="" fill="#0D0C06" transform="translate(0,0)"/>
<path d="" fill="#0C0D06" transform="translate(0,0)"/>
<path d="" fill="#0D0C06" transform="translate(0,0)"/>
<path d="" fill="#0D0E07" transform="translate(0,0)"/>
<path d="" fill="#0B0A01" transform="translate(0,0)"/>
<path d="" fill="#0A0C02" transform="translate(0,0)"/>
<path d="" fill="#0C0B04" transform="translate(0,0)"/>
<path d="" fill="#0D0C06" transform="translate(0,0)"/>
<path d="" fill="#0D0C08" transform="translate(0,0)"/>
<path d="" fill="#0D0C06" transform="translate(0,0)"/>
<path d="" fill="#0D0C06" transform="translate(0,0)"/>
<path d="" fill="#0D0C06" transform="translate(0,0)"/>
<path d="" fill="#0D0C08" transform="translate(0,0)"/>
<path d="" fill="#0C0A06" transform="translate(0,0)"/>
<path d="" fill="#0C0B04" transform="translate(0,0)"/>
<path d="" fill="#0D0C06" transform="translate(0,0)"/>
<path d="" fill="#0C0C08" transform="translate(0,0)"/>
<path d="" fill="#0D0C06" transform="translate(0,0)"/>
<path d="" fill="#0C0B04" transform="translate(0,0)"/>
<path d="" fill="#0C0D06" transform="translate(0,0)"/>
<path d="" fill="#0B0905" transform="translate(0,0)"/>
<path d="" fill="#0D0C08" transform="translate(0,0)"/>
<path d="" fill="#0C0B04" transform="translate(0,0)"/>
<path d="" fill="#0D0C04" transform="translate(0,0)"/>
<path d="" fill="#0B0A03" transform="translate(0,0)"/>
<path d="" fill="#0D0C06" transform="translate(0,0)"/>
<path d="" fill="#0C0B04" transform="translate(0,0)"/>
<path d="" fill="#0D0C06" transform="translate(0,0)"/>
<path d="" fill="#0C0B04" transform="translate(0,0)"/>
<path d="" fill="#0C0B04" transform="translate(0,0)"/>
<path d="" fill="#0A0C04" transform="translate(0,0)"/>
<path d="" fill="#0C0B04" transform="translate(0,0)"/>
<path d="" fill="#0C0B04" transform="translate(0,0)"/>
<path d="" fill="#0A0C04" transform="translate(0,0)"/>
<path d="" fill="#0C0D06" transform="translate(0,0)"/>
<path d="" fill="#0C0D06" transform="translate(0,0)"/>
<path d="" fill="#0C0B04" transform="translate(0,0)"/>
<path d="" fill="#0C0C08" transform="translate(0,0)"/>
<path d="" fill="#0D0C06" transform="translate(0,0)"/>
<path d="" fill="#0C0B04" transform="translate(0,0)"/>
<path d="" fill="#0A0C04" transform="translate(0,0)"/>
<path d="" fill="#0B0A03" transform="translate(0,0)"/>
<path d="" fill="#0C0D06" transform="translate(0,0)"/>
<path d="" fill="#0C0B02" transform="translate(0,0)"/>
<path d="" fill="#0C0B02" transform="translate(0,0)"/>
<path d="" fill="#0C0D04" transform="translate(0,0)"/>
<path d="" fill="#0C0B04" transform="translate(0,0)"/>
<path d="" fill="#0C0B04" transform="translate(0,0)"/>
<path d="" fill="#0C0B04" transform="translate(0,0)"/>
<path d="" fill="#0D0C06" transform="translate(0,0)"/>
<path d="" fill="#0C0A06" transform="translate(0,0)"/>
<path d="" fill="#0E0D07" transform="translate(0,0)"/>
<path d="" fill="#0C0A06" transform="translate(0,0)"/>
<path d="" fill="#0C0B02" transform="translate(0,0)"/>
<path d="" fill="#0D0C06" transform="translate(0,0)"/>
<path d="" fill="#0D0C08" transform="translate(0,0)"/>
<path d="" fill="#0D0C04" transform="translate(0,0)"/>
<path d="" fill="#0D0C04" transform="translate(0,0)"/>
<path d="" fill="#0D0C06" transform="translate(0,0)"/>
<path d="" fill="#0A0C02" transform="translate(0,0)"/>
<path d="" fill="#0D0C06" transform="translate(0,0)"/>
<path d="" fill="#0C0D06" transform="translate(0,0)"/>
<path d="" fill="#0D0C06" transform="translate(0,0)"/>
<path d="" fill="#0C0C08" transform="translate(0,0)"/>
<path d="" fill="#0D0C06" transform="translate(0,0)"/>
<path d="" fill="#0C0D06" transform="translate(0,0)"/>
<path d="" fill="#0A0C04" transform="translate(0,0)"/>
<path d="" fill="#0C0C08" transform="translate(0,0)"/>
<path d="" fill="#0F0B08" transform="translate(0,0)"/>
<path d="" fill="#0A0C04" transform="translate(0,0)"/>
<path d="" fill="#0E0D07" transform="translate(0,0)"/>
<path d="" fill="#0C0D06" transform="translate(0,0)"/>
<path d="" fill="#0B0905" transform="translate(0,0)"/>
<path d="" fill="#0D0C08" transform="translate(0,0)"/>
<path d="" fill="#0C0B04" transform="translate(0,0)"/>
<path d="" fill="#0C0D06" transform="translate(0,0)"/>
<path d="" fill="#0C0D06" transform="translate(0,0)"/>
<path d="" fill="#0C0D06" transform="translate(0,0)"/>
<path d="" fill="#0D0C06" transform="translate(0,0)"/>
<path d="" fill="#0A0C04" transform="translate(0,0)"/>
<path d="" fill="#0D0C04" transform="translate(0,0)"/>
<path d="" fill="#0D0C06" transform="translate(0,0)"/>
<path d="" fill="#0C0B02" transform="translate(0,0)"/>
<path d="" fill="#0A0B06" transform="translate(0,0)"/>
<path d="" fill="#0D0C06" transform="translate(0,0)"/>
<path d="" fill="#0A0B06" transform="translate(0,0)"/>
<path d="" fill="#0D0C06" transform="translate(0,0)"/>
<path d="" fill="#0D0E07" transform="translate(0,0)"/>
<path d="" fill="#0C0B04" transform="translate(0,0)"/>
<path d="" fill="#0C0D06" transform="translate(0,0)"/>
<path d="" fill="#0B0A03" transform="translate(0,0)"/>
<path d="" fill="#090A03" transform="translate(0,0)"/>
<path d="" fill="#0A0C04" transform="translate(0,0)"/>
<path d="" fill="#0A0C04" transform="translate(0,0)"/>
<path d="" fill="#0C0D06" transform="translate(0,0)"/>
<path d="" fill="#0D0E07" transform="translate(0,0)"/>
<path d="" fill="#0D0C06" transform="translate(0,0)"/>
<path d="" fill="#090A03" transform="translate(0,0)"/>
<path d="" fill="#0B0A03" transform="translate(0,0)"/>
<path d="" fill="#0C0D06" transform="translate(0,0)"/>
<path d="" fill="#0C0D04" transform="translate(0,0)"/>
<path d="" fill="#0D0E05" transform="translate(0,0)"/>
<path d="" fill="#0A0C04" transform="translate(0,0)"/>
<path d="" fill="#0D0C06" transform="translate(0,0)"/>
<path d="" fill="#090A03" transform="translate(0,0)"/>
<path d="" fill="#0C0A06" transform="translate(0,0)"/>
<path d="" fill="#0A0C04" transform="translate(0,0)"/>
<path d="" fill="#0E0D07" transform="translate(0,0)"/>
<path d="" fill="#0C0D06" transform="translate(0,0)"/>
<path d="" fill="#0C0B02" transform="translate(0,0)"/>
<path d="" fill="#0D0C04" transform="translate(0,0)"/>
<path d="" fill="#0C0D04" transform="translate(0,0)"/>
<path d="" fill="#0C0D06" transform="translate(0,0)"/>
<path d="" fill="#0D0E09" transform="translate(0,0)"/>
<path d="" fill="#0C0B04" transform="translate(0,0)"/>
<path d="" fill="#0D0C08" transform="translate(0,0)"/>
<path d="" fill="#0C0B04" transform="translate(0,0)"/>
<path d="" fill="#0C0D06" transform="translate(0,0)"/>
<path d="" fill="#0C0D06" transform="translate(0,0)"/>
<path d="" fill="#0A0B06" transform="translate(0,0)"/>
<path d="" fill="#0A0C04" transform="translate(0,0)"/>
<path d="" fill="#0D0C04" transform="translate(0,0)"/>
<path d="" fill="#0D0C06" transform="translate(0,0)"/>
<path d="" fill="#0D0C06" transform="translate(0,0)"/>
<path d="" fill="#0C0D06" transform="translate(0,0)"/>
<path d="" fill="#0C0D06" transform="translate(0,0)"/>
<path d="" fill="#0E0D09" transform="translate(0,0)"/>
<path d="" fill="#0C0B04" transform="translate(0,0)"/>
<path d="" fill="#0C0B04" transform="translate(0,0)"/>
<path d="" fill="#0D0C04" transform="translate(0,0)"/>
<path d="" fill="#0C0B04" transform="translate(0,0)"/>
<path d="" fill="#0C0B04" transform="translate(0,0)"/>
<path d="" fill="#0D0E07" transform="translate(0,0)"/>
<path d="" fill="#0C0B04" transform="translate(0,0)"/>
<path d="" fill="#090A03" transform="translate(0,0)"/>
<path d="" fill="#0C0D06" transform="translate(0,0)"/>
<path d="" fill="#0A0B06" transform="translate(0,0)"/>
<path d="" fill="#0A0C04" transform="translate(0,0)"/>
<path d="" fill="#0A0B06" transform="translate(0,0)"/>
</svg>
